<svg width="561" height="419" viewBox="0 0 561 419" fill="none" xmlns="http://www.w3.org/2000/svg">
<mask id="mask0" mask-type="alpha" maskUnits="userSpaceOnUse" x="52" y="131" width="240" height="240">
<rect x="52" y="131" width="240" height="240" fill="url(#paint0_radial)"/>
</mask>
<g mask="url(#mask0)">
<g opacity="0.3">
<circle cx="54" cy="133" r="2.33333" fill="#1D2145" stroke="#1D2145" stroke-width="0.666667"/>
<circle opacity="0.8" cx="82.4443" cy="133" r="2.33333" fill="#1D2145" stroke="#1D2145" stroke-width="0.666667"/>
<circle cx="110.889" cy="133" r="2.33333" fill="#1D2145" stroke="#1D2145" stroke-width="0.666667"/>
<circle opacity="0.4" cx="139.333" cy="133" r="2.33333" fill="#1D2145" stroke="#1D2145" stroke-width="0.666667"/>
<circle cx="167.778" cy="133" r="2.33333" fill="#1D2145" stroke="#1D2145" stroke-width="0.666667"/>
<circle cx="196.222" cy="133" r="2.33333" fill="#1D2145" stroke="#1D2145" stroke-width="0.666667"/>
<circle opacity="0.6" cx="224.667" cy="133" r="2.33333" fill="#1D2145" stroke="#1D2145" stroke-width="0.666667"/>
<circle opacity="0.4" cx="253.111" cy="133" r="2.33333" fill="#1D2145" stroke="#1D2145" stroke-width="0.666667"/>
<circle opacity="0.6" cx="281.556" cy="133" r="2.33333" fill="#1D2145" stroke="#1D2145" stroke-width="0.666667"/>
<circle cx="54" cy="161.444" r="2.33333" fill="#1D2145" stroke="#1D2145" stroke-width="0.666667"/>
<circle opacity="0.6" cx="82.4443" cy="161.444" r="2.33333" fill="#1D2145" stroke="#1D2145" stroke-width="0.666667"/>
<circle cx="110.889" cy="161.444" r="2.33333" fill="#1D2145" stroke="#1D2145" stroke-width="0.666667"/>
<circle cx="139.333" cy="161.444" r="2.33333" fill="#1D2145" stroke="#1D2145" stroke-width="0.666667"/>
<circle opacity="0.6" cx="167.778" cy="161.444" r="2.33333" fill="#1D2145" stroke="#1D2145" stroke-width="0.666667"/>
<circle opacity="0.4" cx="196.222" cy="161.444" r="2.33333" fill="#1D2145" stroke="#1D2145" stroke-width="0.666667"/>
<circle cx="224.667" cy="161.444" r="2.33333" fill="#1D2145" stroke="#1D2145" stroke-width="0.666667"/>
<circle opacity="0.4" cx="253.111" cy="161.444" r="2.33333" fill="#1D2145" stroke="#1D2145" stroke-width="0.666667"/>
<circle cx="281.556" cy="161.444" r="2.33333" fill="#1D2145" stroke="#1D2145" stroke-width="0.666667"/>
<circle cx="54" cy="189.889" r="2.33333" fill="#1D2145" stroke="#1D2145" stroke-width="0.666667"/>
<circle cx="82.4443" cy="189.889" r="2.33333" fill="#1D2145" stroke="#1D2145" stroke-width="0.666667"/>
<circle cx="110.889" cy="189.889" r="2.33333" fill="#1D2145" stroke="#1D2145" stroke-width="0.666667"/>
<circle cx="139.333" cy="189.889" r="2.33333" fill="#1D2145" stroke="#1D2145" stroke-width="0.666667"/>
<circle opacity="0.6" cx="167.778" cy="189.889" r="2.33333" fill="#1D2145" stroke="#1D2145" stroke-width="0.666667"/>
<circle cx="196.222" cy="189.889" r="2.33333" fill="#1D2145" stroke="#1D2145" stroke-width="0.666667"/>
<circle opacity="0.8" cx="224.667" cy="189.889" r="2.33333" fill="#1D2145" stroke="#1D2145" stroke-width="0.666667"/>
<circle cx="253.111" cy="189.889" r="2.33333" fill="#1D2145" stroke="#1D2145" stroke-width="0.666667"/>
<circle opacity="0.4" cx="281.556" cy="189.889" r="2.33333" fill="#1D2145" stroke="#1D2145" stroke-width="0.666667"/>
<circle opacity="0.6" cx="54" cy="218.333" r="2.33333" fill="#1D2145" stroke="#1D2145" stroke-width="0.666667"/>
<circle opacity="0.8" cx="82.4443" cy="218.333" r="2.33333" fill="#1D2145" stroke="#1D2145" stroke-width="0.666667"/>
<circle opacity="0.6" cx="110.889" cy="218.333" r="2.33333" fill="#1D2145" stroke="#1D2145" stroke-width="0.666667"/>
<circle cx="139.333" cy="218.333" r="2.33333" fill="#1D2145" stroke="#1D2145" stroke-width="0.666667"/>
<circle cx="167.778" cy="218.333" r="2.33333" fill="#1D2145" stroke="#1D2145" stroke-width="0.666667"/>
<circle cx="196.222" cy="218.333" r="2.33333" fill="#1D2145" stroke="#1D2145" stroke-width="0.666667"/>
<circle opacity="0.4" cx="224.667" cy="218.333" r="2.33333" fill="#1D2145" stroke="#1D2145" stroke-width="0.666667"/>
<circle opacity="0.4" cx="253.111" cy="218.333" r="2.33333" fill="#1D2145" stroke="#1D2145" stroke-width="0.666667"/>
<circle opacity="0.6" cx="281.556" cy="218.333" r="2.33333" fill="#1D2145" stroke="#1D2145" stroke-width="0.666667"/>
<circle cx="54" cy="246.778" r="2.33333" fill="#1D2145" stroke="#1D2145" stroke-width="0.666667"/>
<circle cx="82.4443" cy="246.778" r="2.33333" fill="#1D2145" stroke="#1D2145" stroke-width="0.666667"/>
<circle cx="110.889" cy="246.778" r="2.33333" fill="#1D2145" stroke="#1D2145" stroke-width="0.666667"/>
<circle opacity="0.6" cx="139.333" cy="246.778" r="2.33333" fill="#1D2145" stroke="#1D2145" stroke-width="0.666667"/>
<circle opacity="0.6" cx="167.778" cy="246.778" r="2.33333" fill="#1D2145" stroke="#1D2145" stroke-width="0.666667"/>
<circle opacity="0.4" cx="196.222" cy="246.778" r="2.33333" fill="#1D2145" stroke="#1D2145" stroke-width="0.666667"/>
<circle opacity="0.8" cx="224.667" cy="246.778" r="2.33333" fill="#1D2145" stroke="#1D2145" stroke-width="0.666667"/>
<circle cx="253.111" cy="246.778" r="2.33333" fill="#1D2145" stroke="#1D2145" stroke-width="0.666667"/>
<circle opacity="0.4" cx="281.556" cy="246.778" r="2.33333" fill="#1D2145" stroke="#1D2145" stroke-width="0.666667"/>
<circle opacity="0.6" cx="54" cy="275.222" r="2.33333" fill="#1D2145" stroke="#1D2145" stroke-width="0.666667"/>
<circle opacity="0.6" cx="82.4443" cy="275.222" r="2.33333" fill="#1D2145" stroke="#1D2145" stroke-width="0.666667"/>
<circle opacity="0.6" cx="110.889" cy="275.222" r="2.33333" fill="#1D2145" stroke="#1D2145" stroke-width="0.666667"/>
<circle opacity="0.6" cx="139.333" cy="275.222" r="2.33333" fill="#1D2145" stroke="#1D2145" stroke-width="0.666667"/>
<circle cx="167.778" cy="275.222" r="2.33333" fill="#1D2145" stroke="#1D2145" stroke-width="0.666667"/>
<circle opacity="0.6" cx="196.222" cy="275.222" r="2.33333" fill="#1D2145" stroke="#1D2145" stroke-width="0.666667"/>
<circle cx="224.667" cy="275.222" r="2.33333" fill="#1D2145" stroke="#1D2145" stroke-width="0.666667"/>
<circle cx="253.111" cy="275.222" r="2.33333" fill="#1D2145" stroke="#1D2145" stroke-width="0.666667"/>
<circle opacity="0.4" cx="281.556" cy="275.222" r="2.33333" fill="#1D2145" stroke="#1D2145" stroke-width="0.666667"/>
<circle opacity="0.6" cx="54" cy="303.667" r="2.33333" fill="#1D2145" stroke="#1D2145" stroke-width="0.666667"/>
<circle cx="82.4443" cy="303.667" r="2.33333" fill="#1D2145" stroke="#1D2145" stroke-width="0.666667"/>
<circle opacity="0.8" cx="110.889" cy="303.667" r="2.33333" fill="#1D2145" stroke="#1D2145" stroke-width="0.666667"/>
<circle opacity="0.8" cx="139.333" cy="303.667" r="2.33333" fill="#1D2145" stroke="#1D2145" stroke-width="0.666667"/>
<circle opacity="0.4" cx="167.778" cy="303.667" r="2.33333" fill="#1D2145" stroke="#1D2145" stroke-width="0.666667"/>
<circle cx="196.222" cy="303.667" r="2.33333" fill="#1D2145" stroke="#1D2145" stroke-width="0.666667"/>
<circle cx="224.667" cy="303.667" r="2.33333" fill="#1D2145" stroke="#1D2145" stroke-width="0.666667"/>
<circle opacity="0.8" cx="253.111" cy="303.667" r="2.33333" fill="#1D2145" stroke="#1D2145" stroke-width="0.666667"/>
<circle cx="281.556" cy="303.667" r="2.33333" fill="#1D2145" stroke="#1D2145" stroke-width="0.666667"/>
<circle opacity="0.6" cx="54" cy="332.111" r="2.33333" fill="#1D2145" stroke="#1D2145" stroke-width="0.666667"/>
<circle opacity="0.8" cx="82.4443" cy="332.111" r="2.33333" fill="#1D2145" stroke="#1D2145" stroke-width="0.666667"/>
<circle opacity="0.8" cx="110.889" cy="332.111" r="2.33333" fill="#1D2145" stroke="#1D2145" stroke-width="0.666667"/>
<circle cx="139.333" cy="332.111" r="2.33333" fill="#1D2145" stroke="#1D2145" stroke-width="0.666667"/>
<circle cx="167.778" cy="332.111" r="2.33333" fill="#1D2145" stroke="#1D2145" stroke-width="0.666667"/>
<circle opacity="0.8" cx="196.222" cy="332.111" r="2.33333" fill="#1D2145" stroke="#1D2145" stroke-width="0.666667"/>
<circle opacity="0.4" cx="224.667" cy="332.111" r="2.33333" fill="#1D2145" stroke="#1D2145" stroke-width="0.666667"/>
<circle opacity="0.4" cx="253.111" cy="332.111" r="2.33333" fill="#1D2145" stroke="#1D2145" stroke-width="0.666667"/>
<circle cx="281.556" cy="332.111" r="2.33333" fill="#1D2145" stroke="#1D2145" stroke-width="0.666667"/>
<circle cx="54" cy="360.556" r="2.33333" fill="#1D2145" stroke="#1D2145" stroke-width="0.666667"/>
<circle cx="82.4443" cy="360.556" r="2.33333" fill="#1D2145" stroke="#1D2145" stroke-width="0.666667"/>
<circle cx="110.889" cy="360.556" r="2.33333" fill="#1D2145" stroke="#1D2145" stroke-width="0.666667"/>
<circle opacity="0.4" cx="139.333" cy="360.556" r="2.33333" fill="#1D2145" stroke="#1D2145" stroke-width="0.666667"/>
<circle cx="167.778" cy="360.556" r="2.33333" fill="#1D2145" stroke="#1D2145" stroke-width="0.666667"/>
<circle opacity="0.4" cx="196.222" cy="360.556" r="2.33333" fill="#1D2145" stroke="#1D2145" stroke-width="0.666667"/>
<circle cx="224.667" cy="360.556" r="2.33333" fill="#1D2145" stroke="#1D2145" stroke-width="0.666667"/>
<circle cx="253.111" cy="360.556" r="2.33333" fill="#1D2145" stroke="#1D2145" stroke-width="0.666667"/>
<circle cx="281.556" cy="360.556" r="2.33333" fill="#1D2145" stroke="#1D2145" stroke-width="0.666667"/>
</g>
</g>
<g filter="url(#filter0_dd)">
<rect x="124" y="55" width="320" height="170" rx="20" fill="white"/>
</g>
<circle opacity="0.1" cx="209" cy="140" r="65" fill="#8D6CD1"/>
<path d="M175.065 130.373C174.925 131.07 174.614 131.642 174.134 132.087C173.659 132.532 173.012 132.852 172.191 133.045L175.716 137H172.745L169.502 133.177L169.836 131.454H170.302C171.187 131.454 171.772 131.354 172.06 131.155C172.353 130.95 172.552 130.689 172.657 130.373H169.502V128.562H172.631C172.537 128.334 172.405 128.146 172.235 128C172.071 127.854 171.872 127.754 171.638 127.701C171.403 127.643 171.04 127.613 170.548 127.613H169.502V125.803H177.693V127.613H174.292C174.562 127.824 174.778 128.141 174.942 128.562H177.693V130.373H175.065ZM184.294 137.162C182.71 137.162 181.522 136.604 180.73 135.488C179.95 134.372 179.56 132.842 179.56 130.898C179.56 129.938 179.656 129.056 179.848 128.252C180.052 127.448 180.352 126.74 180.748 126.128C181.144 125.516 181.66 125.042 182.296 124.706C182.932 124.358 183.664 124.184 184.492 124.184C185.716 124.184 186.706 124.52 187.462 125.192C188.218 125.852 188.656 126.686 188.776 127.694H186.436C186.352 127.298 186.142 126.974 185.806 126.722C185.47 126.47 185.032 126.344 184.492 126.344C183.64 126.344 182.986 126.668 182.53 127.316C182.074 127.952 181.846 128.864 181.846 130.052H181.918C182.578 129.2 183.508 128.774 184.708 128.774C185.98 128.774 186.988 129.182 187.732 129.998C188.488 130.802 188.866 131.75 188.866 132.842C188.866 134.078 188.452 135.11 187.624 135.938C186.808 136.754 185.698 137.162 184.294 137.162ZM184.294 135.02C184.93 135.02 185.452 134.822 185.86 134.426C186.28 134.03 186.49 133.514 186.49 132.878C186.49 132.254 186.292 131.75 185.896 131.366C185.512 130.97 184.978 130.772 184.294 130.772C183.634 130.772 183.106 130.97 182.71 131.366C182.314 131.75 182.116 132.254 182.116 132.878C182.116 133.514 182.314 134.03 182.71 134.426C183.106 134.822 183.634 135.02 184.294 135.02ZM190.13 139.538V139.358L190.688 135.02H193.37V135.2L191.984 139.538H190.13ZM199.459 137.162C198.067 137.162 196.939 136.82 196.075 136.136C195.211 135.44 194.779 134.456 194.779 133.184H197.191C197.203 133.7 197.383 134.138 197.731 134.498C198.091 134.858 198.661 135.038 199.441 135.038C200.137 135.038 200.659 134.876 201.007 134.552C201.355 134.228 201.529 133.802 201.529 133.274C201.529 132.734 201.343 132.302 200.971 131.978C200.599 131.654 200.029 131.492 199.261 131.492H198.163V129.386H199.225C199.837 129.386 200.305 129.248 200.629 128.972C200.965 128.684 201.133 128.294 201.133 127.802C201.133 127.37 200.977 127.016 200.665 126.74C200.353 126.452 199.909 126.308 199.333 126.308C198.697 126.308 198.217 126.47 197.893 126.794C197.581 127.118 197.419 127.562 197.407 128.126H194.977C194.989 126.914 195.391 125.954 196.183 125.246C196.987 124.538 198.055 124.184 199.387 124.184C200.587 124.184 201.589 124.502 202.393 125.138C203.209 125.762 203.617 126.572 203.617 127.568C203.617 128.9 203.035 129.794 201.871 130.25V130.322C202.495 130.514 203.005 130.874 203.401 131.402C203.809 131.93 204.013 132.548 204.013 133.256C204.013 134.384 203.623 135.32 202.843 136.064C202.075 136.796 200.947 137.162 199.459 137.162ZM208.775 137V126.884H208.703L205.805 129.08H205.625V126.74L208.757 124.4H211.205V137H208.775ZM212.911 139.538V139.358L213.469 135.02H216.151V135.2L214.765 139.538H212.911ZM222.24 137.162C220.848 137.162 219.72 136.82 218.856 136.136C217.992 135.44 217.56 134.456 217.56 133.184H219.972C219.984 133.7 220.164 134.138 220.512 134.498C220.872 134.858 221.442 135.038 222.222 135.038C222.918 135.038 223.44 134.876 223.788 134.552C224.136 134.228 224.31 133.802 224.31 133.274C224.31 132.734 224.124 132.302 223.752 131.978C223.38 131.654 222.81 131.492 222.042 131.492H220.944V129.386H222.006C222.618 129.386 223.086 129.248 223.41 128.972C223.746 128.684 223.914 128.294 223.914 127.802C223.914 127.37 223.758 127.016 223.446 126.74C223.134 126.452 222.69 126.308 222.114 126.308C221.478 126.308 220.998 126.47 220.674 126.794C220.362 127.118 220.2 127.562 220.188 128.126H217.758C217.77 126.914 218.172 125.954 218.964 125.246C219.768 124.538 220.836 124.184 222.168 124.184C223.368 124.184 224.37 124.502 225.174 125.138C225.99 125.762 226.398 126.572 226.398 127.568C226.398 128.9 225.816 129.794 224.652 130.25V130.322C225.276 130.514 225.786 130.874 226.182 131.402C226.59 131.93 226.794 132.548 226.794 133.256C226.794 134.384 226.404 135.32 225.624 136.064C224.856 136.796 223.728 137.162 222.24 137.162ZM233.086 137.162C231.694 137.162 230.566 136.82 229.702 136.136C228.838 135.44 228.406 134.456 228.406 133.184H230.818C230.83 133.7 231.01 134.138 231.358 134.498C231.718 134.858 232.288 135.038 233.068 135.038C233.764 135.038 234.286 134.876 234.634 134.552C234.982 134.228 235.156 133.802 235.156 133.274C235.156 132.734 234.97 132.302 234.598 131.978C234.226 131.654 233.656 131.492 232.888 131.492H231.79V129.386H232.852C233.464 129.386 233.932 129.248 234.256 128.972C234.592 128.684 234.76 128.294 234.76 127.802C234.76 127.37 234.604 127.016 234.292 126.74C233.98 126.452 233.536 126.308 232.96 126.308C232.324 126.308 231.844 126.47 231.52 126.794C231.208 127.118 231.046 127.562 231.034 128.126H228.604C228.616 126.914 229.018 125.954 229.81 125.246C230.614 124.538 231.682 124.184 233.014 124.184C234.214 124.184 235.216 124.502 236.02 125.138C236.836 125.762 237.244 126.572 237.244 127.568C237.244 128.9 236.662 129.794 235.498 130.25V130.322C236.122 130.514 236.632 130.874 237.028 131.402C237.436 131.93 237.64 132.548 237.64 133.256C237.64 134.384 237.25 135.32 236.47 136.064C235.702 136.796 234.574 137.162 233.086 137.162ZM244.13 137.162C242.546 137.162 241.358 136.604 240.566 135.488C239.786 134.372 239.396 132.842 239.396 130.898C239.396 129.938 239.492 129.056 239.684 128.252C239.888 127.448 240.188 126.74 240.584 126.128C240.98 125.516 241.496 125.042 242.132 124.706C242.768 124.358 243.5 124.184 244.328 124.184C245.552 124.184 246.542 124.52 247.298 125.192C248.054 125.852 248.492 126.686 248.612 127.694H246.272C246.188 127.298 245.978 126.974 245.642 126.722C245.306 126.47 244.868 126.344 244.328 126.344C243.476 126.344 242.822 126.668 242.366 127.316C241.91 127.952 241.682 128.864 241.682 130.052H241.754C242.414 129.2 243.344 128.774 244.544 128.774C245.816 128.774 246.824 129.182 247.568 129.998C248.324 130.802 248.702 131.75 248.702 132.842C248.702 134.078 248.288 135.11 247.46 135.938C246.644 136.754 245.534 137.162 244.13 137.162ZM244.13 135.02C244.766 135.02 245.288 134.822 245.696 134.426C246.116 134.03 246.326 133.514 246.326 132.878C246.326 132.254 246.128 131.75 245.732 131.366C245.348 130.97 244.814 130.772 244.13 130.772C243.47 130.772 242.942 130.97 242.546 131.366C242.15 131.75 241.952 132.254 241.952 132.878C241.952 133.514 242.15 134.03 242.546 134.426C242.942 134.822 243.47 135.02 244.13 135.02Z" fill="#8D6CD1"/>
<path d="M190.971 158.108C189.931 158.108 189.123 157.86 188.547 157.364C187.979 156.86 187.675 156.18 187.635 155.324H189.063C189.095 155.812 189.275 156.188 189.603 156.452C189.939 156.716 190.395 156.848 190.971 156.848C192.203 156.848 192.819 156.448 192.819 155.648C192.819 155.328 192.711 155.08 192.495 154.904C192.287 154.72 191.963 154.58 191.523 154.484L190.299 154.22C189.523 154.052 188.931 153.784 188.523 153.416C188.115 153.04 187.911 152.516 187.911 151.844C187.911 151.132 188.187 150.564 188.739 150.14C189.291 149.708 190.039 149.492 190.983 149.492C191.911 149.492 192.663 149.732 193.239 150.212C193.823 150.692 194.119 151.32 194.127 152.096H192.699C192.675 151.688 192.519 151.364 192.231 151.124C191.943 150.884 191.519 150.764 190.959 150.764C189.895 150.764 189.363 151.124 189.363 151.844C189.363 152.364 189.771 152.712 190.587 152.888L191.727 153.128C193.423 153.48 194.271 154.312 194.271 155.624C194.271 156.392 193.987 157 193.419 157.448C192.859 157.888 192.043 158.108 190.971 158.108ZM197.401 158.108C196.737 158.108 196.209 157.928 195.817 157.568C195.433 157.2 195.241 156.736 195.241 156.176C195.241 155.6 195.449 155.136 195.865 154.784C196.289 154.432 196.925 154.256 197.773 154.256C198.277 154.256 198.757 154.324 199.213 154.46V153.884C199.213 153.572 199.109 153.32 198.901 153.128C198.701 152.928 198.397 152.828 197.989 152.828C197.629 152.828 197.345 152.916 197.137 153.092C196.937 153.268 196.833 153.488 196.825 153.752H195.529C195.529 153.152 195.749 152.66 196.189 152.276C196.637 151.892 197.245 151.7 198.013 151.7C198.805 151.7 199.429 151.904 199.885 152.312C200.341 152.72 200.569 153.24 200.569 153.872V158H199.369L199.273 157.268H199.225C198.841 157.828 198.233 158.108 197.401 158.108ZM197.713 157.016C198.161 157.016 198.521 156.884 198.793 156.62C199.073 156.356 199.213 156.036 199.213 155.66V155.456C198.789 155.312 198.341 155.24 197.869 155.24C197.461 155.24 197.149 155.32 196.933 155.48C196.717 155.632 196.609 155.848 196.609 156.128C196.609 156.392 196.701 156.608 196.885 156.776C197.077 156.936 197.353 157.016 197.713 157.016ZM203.643 158L201.411 151.928V151.808H202.815L204.435 156.584H204.483L206.055 151.808H207.447V151.928L205.251 158H203.643ZM209.849 150.632C209.697 150.784 209.481 150.86 209.201 150.86C208.921 150.86 208.705 150.784 208.553 150.632C208.401 150.48 208.325 150.268 208.325 149.996C208.325 149.732 208.397 149.524 208.541 149.372C208.693 149.22 208.913 149.144 209.201 149.144C209.481 149.144 209.697 149.22 209.849 149.372C210.001 149.524 210.077 149.732 210.077 149.996C210.077 150.26 210.001 150.472 209.849 150.632ZM208.517 158V151.808H209.885V158H208.517ZM211.517 158V151.808H212.729L212.837 152.612H212.885C213.269 152.004 213.873 151.7 214.697 151.7C215.385 151.7 215.929 151.9 216.329 152.3C216.729 152.7 216.929 153.252 216.929 153.956V158H215.561V154.292C215.561 153.388 215.141 152.936 214.301 152.936C213.869 152.936 213.525 153.084 213.269 153.38C213.013 153.668 212.885 154.068 212.885 154.58V158H211.517ZM221.056 160.856C220.256 160.856 219.604 160.652 219.1 160.244C218.604 159.844 218.348 159.32 218.332 158.672H219.664C219.688 158.952 219.82 159.188 220.06 159.38C220.308 159.58 220.64 159.68 221.056 159.68C221.544 159.68 221.916 159.552 222.172 159.296C222.428 159.048 222.556 158.72 222.556 158.312V157.256H222.508C222.132 157.824 221.54 158.108 220.732 158.108C219.924 158.108 219.292 157.812 218.836 157.22C218.388 156.628 218.16 155.856 218.152 154.904C218.16 153.928 218.392 153.152 218.848 152.576C219.312 151.992 219.94 151.7 220.732 151.7C221.54 151.7 222.132 151.984 222.508 152.552H222.556L222.712 151.808H223.924V158.336C223.924 159.08 223.66 159.684 223.132 160.148C222.612 160.62 221.92 160.856 221.056 160.856ZM221.068 156.896C221.588 156.896 221.972 156.712 222.22 156.344C222.476 155.968 222.604 155.488 222.604 154.904C222.604 154.328 222.476 153.852 222.22 153.476C221.964 153.1 221.58 152.912 221.068 152.912C220.54 152.912 220.152 153.096 219.904 153.464C219.664 153.832 219.544 154.312 219.544 154.904C219.544 155.496 219.664 155.976 219.904 156.344C220.152 156.712 220.54 156.896 221.068 156.896ZM227.776 158.108C226.96 158.108 226.32 157.912 225.856 157.52C225.4 157.128 225.164 156.6 225.148 155.936H226.516C226.516 156.24 226.628 156.484 226.852 156.668C227.076 156.844 227.384 156.932 227.776 156.932C228.568 156.932 228.964 156.7 228.964 156.236C228.964 155.876 228.692 155.64 228.148 155.528L227.056 155.324C225.912 155.092 225.34 154.484 225.34 153.5C225.34 152.98 225.552 152.552 225.976 152.216C226.408 151.872 226.992 151.7 227.728 151.7C228.472 151.7 229.068 151.888 229.516 152.264C229.972 152.64 230.2 153.128 230.2 153.728H228.856C228.84 153.44 228.732 153.216 228.532 153.056C228.332 152.888 228.056 152.804 227.704 152.804C227.392 152.804 227.14 152.868 226.948 152.996C226.764 153.116 226.672 153.288 226.672 153.512C226.672 153.872 226.944 154.096 227.488 154.184L228.544 154.388C229.136 154.516 229.584 154.72 229.888 155C230.192 155.272 230.344 155.684 230.344 156.236C230.344 156.82 230.1 157.28 229.612 157.616C229.132 157.944 228.52 158.108 227.776 158.108Z" fill="#676875"/>
<path d="M310.311 100.758C310.229 101.52 309.933 102.135 309.423 102.604C308.913 103.072 308.148 103.383 307.129 103.535L310.935 108H309.089L305.292 103.562L305.468 102.278H306.276C306.563 102.278 306.815 102.267 307.032 102.243C307.249 102.22 307.437 102.188 307.595 102.146C307.759 102.1 307.899 102.044 308.017 101.979C308.134 101.909 308.242 101.83 308.342 101.742C308.6 101.496 308.767 101.168 308.843 100.758H305.292V99.4746H308.825C308.778 99.2461 308.702 99.0527 308.597 98.8945C308.497 98.7305 308.365 98.584 308.201 98.4551C308.037 98.3262 307.82 98.2324 307.551 98.1738C307.287 98.1152 306.933 98.0859 306.487 98.0859H305.292V96.8027H312.886V98.0859H309.511C309.716 98.2324 309.886 98.4258 310.021 98.666C310.155 98.9062 310.249 99.1758 310.302 99.4746H312.886V100.758H310.311ZM317.892 108V97.578H317.82L314.922 99.792H314.742V97.776L317.874 95.4H319.962V108H317.892ZM330.705 106.416C329.961 107.58 328.797 108.162 327.213 108.162C325.629 108.162 324.459 107.58 323.703 106.416C322.959 105.252 322.587 103.668 322.587 101.664C322.587 99.672 322.959 98.094 323.703 96.93C324.459 95.766 325.629 95.184 327.213 95.184C328.797 95.184 329.961 95.766 330.705 96.93C331.461 98.094 331.839 99.672 331.839 101.664C331.839 103.668 331.461 105.252 330.705 106.416ZM325.251 105.12C325.623 105.924 326.277 106.326 327.213 106.326C328.149 106.326 328.803 105.924 329.175 105.12C329.547 104.316 329.733 103.164 329.733 101.664C329.733 100.176 329.541 99.03 329.157 98.226C328.785 97.422 328.137 97.02 327.213 97.02C326.289 97.02 325.635 97.422 325.251 98.226C324.879 99.03 324.693 100.176 324.693 101.664C324.693 103.164 324.879 104.316 325.251 105.12ZM333.385 110.484V110.304L333.943 106.074H336.265V106.254L335.005 110.484H333.385ZM339.671 108V97.578H339.599L336.701 99.792H336.521V97.776L339.653 95.4H341.741V108H339.671ZM351.17 101.358C352.55 101.898 353.24 102.924 353.24 104.436C353.24 105.6 352.832 106.512 352.016 107.172C351.212 107.82 350.126 108.15 348.758 108.162C347.39 108.15 346.298 107.82 345.482 107.172C344.678 106.512 344.276 105.6 344.276 104.436C344.276 102.924 344.966 101.898 346.346 101.358V101.286C345.218 100.746 344.654 99.822 344.654 98.514C344.654 97.506 345.026 96.702 345.77 96.102C346.526 95.502 347.522 95.196 348.758 95.184C349.994 95.196 350.984 95.502 351.728 96.102C352.484 96.702 352.862 97.506 352.862 98.514C352.862 99.822 352.298 100.746 351.17 101.286V101.358ZM350.234 97.452C349.886 97.14 349.394 96.984 348.758 96.984C348.122 96.984 347.624 97.14 347.264 97.452C346.916 97.752 346.742 98.172 346.742 98.712C346.742 99.24 346.922 99.666 347.282 99.99C347.654 100.314 348.146 100.476 348.758 100.476C349.37 100.476 349.856 100.314 350.216 99.99C350.588 99.666 350.774 99.24 350.774 98.712C350.774 98.172 350.594 97.752 350.234 97.452ZM348.758 106.362C349.526 106.35 350.114 106.164 350.522 105.804C350.93 105.444 351.134 104.946 351.134 104.31C351.134 103.698 350.93 103.212 350.522 102.852C350.126 102.48 349.538 102.288 348.758 102.276C347.978 102.288 347.384 102.48 346.976 102.852C346.58 103.212 346.382 103.698 346.382 104.31C346.382 104.946 346.586 105.444 346.994 105.804C347.402 106.164 347.99 106.35 348.758 106.362ZM359.586 108.162C358.254 108.162 357.174 107.82 356.346 107.136C355.53 106.452 355.122 105.51 355.122 104.31H357.174C357.174 104.886 357.372 105.372 357.768 105.768C358.164 106.152 358.764 106.344 359.568 106.344C360.312 106.344 360.882 106.164 361.278 105.804C361.674 105.444 361.872 104.964 361.872 104.364C361.872 103.728 361.662 103.236 361.242 102.888C360.822 102.528 360.204 102.348 359.388 102.348H358.29V100.53H359.352C360.012 100.53 360.528 100.368 360.9 100.044C361.284 99.708 361.476 99.264 361.476 98.712C361.476 98.22 361.302 97.812 360.954 97.488C360.618 97.164 360.126 97.002 359.478 97.002C358.794 97.002 358.272 97.182 357.912 97.542C357.564 97.89 357.384 98.364 357.372 98.964H355.302C355.326 97.788 355.716 96.864 356.472 96.192C357.228 95.52 358.248 95.184 359.532 95.184C360.696 95.184 361.662 95.496 362.43 96.12C363.21 96.732 363.6 97.536 363.6 98.532C363.6 99.888 362.994 100.794 361.782 101.25V101.322C362.454 101.526 362.988 101.898 363.384 102.438C363.792 102.978 363.996 103.608 363.996 104.328C363.996 105.432 363.612 106.35 362.844 107.082C362.088 107.802 361.002 108.162 359.586 108.162Z" fill="#676875"/>
<rect opacity="0.05" x="304" y="120" width="100" height="8" rx="4" fill="#1D2145"/>
<path d="M310.311 161.758C310.229 162.52 309.933 163.135 309.423 163.604C308.913 164.072 308.148 164.383 307.129 164.535L310.935 169H309.089L305.292 164.562L305.468 163.278H306.276C306.563 163.278 306.815 163.267 307.032 163.243C307.249 163.22 307.437 163.188 307.595 163.146C307.759 163.1 307.899 163.044 308.017 162.979C308.134 162.909 308.242 162.83 308.342 162.742C308.6 162.496 308.767 162.168 308.843 161.758H305.292V160.475H308.825C308.778 160.246 308.702 160.053 308.597 159.895C308.497 159.73 308.365 159.584 308.201 159.455C308.037 159.326 307.82 159.232 307.551 159.174C307.287 159.115 306.933 159.086 306.487 159.086H305.292V157.803H312.886V159.086H309.511C309.716 159.232 309.886 159.426 310.021 159.666C310.155 159.906 310.249 160.176 310.302 160.475H312.886V161.758H310.311ZM317.892 169V158.578H317.82L314.922 160.792H314.742V158.776L317.874 156.4H319.962V169H317.892ZM322.083 171.484V171.304L322.641 167.074H324.963V167.254L323.703 171.484H322.083ZM328.369 169V158.578H328.297L325.399 160.792H325.219V158.776L328.351 156.4H330.439V169H328.369ZM333.009 169V167.344L337.239 162.79C337.947 162.022 338.421 161.452 338.661 161.08C338.913 160.696 339.039 160.27 339.039 159.802C339.039 159.262 338.871 158.83 338.535 158.506C338.199 158.182 337.719 158.02 337.095 158.02C336.459 158.02 335.949 158.206 335.565 158.578C335.193 158.938 335.007 159.466 335.007 160.162H332.973C332.973 158.95 333.339 157.984 334.071 157.264C334.815 156.544 335.823 156.184 337.095 156.184C338.319 156.184 339.297 156.514 340.029 157.174C340.773 157.834 341.145 158.686 341.145 159.73C341.145 160.378 340.977 160.99 340.641 161.566C340.305 162.13 339.723 162.856 338.895 163.744L335.799 167.056V167.128H341.343V169H333.009ZM342.807 171.484V171.304L343.365 167.074H345.687V167.254L344.427 171.484H342.807ZM355.718 167.416C354.974 168.58 353.81 169.162 352.226 169.162C350.642 169.162 349.472 168.58 348.716 167.416C347.972 166.252 347.6 164.668 347.6 162.664C347.6 160.672 347.972 159.094 348.716 157.93C349.472 156.766 350.642 156.184 352.226 156.184C353.81 156.184 354.974 156.766 355.718 157.93C356.474 159.094 356.852 160.672 356.852 162.664C356.852 164.668 356.474 166.252 355.718 167.416ZM350.264 166.12C350.636 166.924 351.29 167.326 352.226 167.326C353.162 167.326 353.816 166.924 354.188 166.12C354.56 165.316 354.746 164.164 354.746 162.664C354.746 161.176 354.554 160.03 354.17 159.226C353.798 158.422 353.15 158.02 352.226 158.02C351.302 158.02 350.648 158.422 350.264 159.226C349.892 160.03 349.706 161.176 349.706 162.664C349.706 164.164 349.892 165.316 350.264 166.12ZM361.855 169V158.578H361.783L358.885 160.792H358.705V158.776L361.837 156.4H363.925V169H361.855ZM374.667 167.416C373.923 168.58 372.759 169.162 371.175 169.162C369.591 169.162 368.421 168.58 367.665 167.416C366.921 166.252 366.549 164.668 366.549 162.664C366.549 160.672 366.921 159.094 367.665 157.93C368.421 156.766 369.591 156.184 371.175 156.184C372.759 156.184 373.923 156.766 374.667 157.93C375.423 159.094 375.801 160.672 375.801 162.664C375.801 164.668 375.423 166.252 374.667 167.416ZM369.213 166.12C369.585 166.924 370.239 167.326 371.175 167.326C372.111 167.326 372.765 166.924 373.137 166.12C373.509 165.316 373.695 164.164 373.695 162.664C373.695 161.176 373.503 160.03 373.119 159.226C372.747 158.422 372.099 158.02 371.175 158.02C370.251 158.02 369.597 158.422 369.213 159.226C368.841 160.03 368.655 161.176 368.655 162.664C368.655 164.164 368.841 165.316 369.213 166.12Z" fill="#676875"/>
<rect opacity="0.05" x="304" y="182" width="60" height="8" rx="4" fill="#1D2145"/>
<g filter="url(#filter1_dd)">
<rect x="164" y="182" width="320" height="170" rx="20" fill="white"/>
</g>
<circle opacity="0.1" cx="249" cy="267" r="65" fill="#ECA336"/>
<path d="M217.851 257.373C217.71 258.07 217.399 258.642 216.919 259.087C216.444 259.532 215.797 259.852 214.977 260.045L218.501 264H215.53L212.287 260.177L212.621 258.454H213.087C213.972 258.454 214.558 258.354 214.845 258.155C215.138 257.95 215.337 257.689 215.442 257.373H212.287V255.562H215.416C215.322 255.334 215.19 255.146 215.021 255C214.856 254.854 214.657 254.754 214.423 254.701C214.188 254.643 213.825 254.613 213.333 254.613H212.287V252.803H220.479V254.613H217.077C217.347 254.824 217.563 255.141 217.728 255.562H220.479V257.373H217.851ZM229.509 257.358C230.841 257.91 231.507 258.918 231.507 260.382C231.507 261.558 231.087 262.482 230.247 263.154C229.407 263.814 228.285 264.15 226.881 264.162C225.477 264.15 224.355 263.814 223.515 263.154C222.675 262.482 222.255 261.558 222.255 260.382C222.255 258.918 222.921 257.91 224.253 257.358V257.286C223.173 256.722 222.633 255.798 222.633 254.514C222.633 253.506 223.023 252.702 223.803 252.102C224.583 251.49 225.609 251.184 226.881 251.184C228.153 251.184 229.179 251.49 229.959 252.102C230.739 252.702 231.129 253.506 231.129 254.514C231.129 255.798 230.589 256.722 229.509 257.286V257.358ZM228.177 253.686C227.853 253.422 227.421 253.29 226.881 253.29C226.341 253.29 225.903 253.422 225.567 253.686C225.243 253.95 225.081 254.316 225.081 254.784C225.081 255.276 225.243 255.654 225.567 255.918C225.903 256.182 226.341 256.32 226.881 256.332C227.421 256.32 227.853 256.182 228.177 255.918C228.513 255.654 228.681 255.276 228.681 254.784C228.681 254.316 228.513 253.95 228.177 253.686ZM226.881 262.056C227.565 262.044 228.093 261.882 228.465 261.57C228.849 261.246 229.041 260.796 229.041 260.22C229.041 259.68 228.849 259.248 228.465 258.924C228.093 258.6 227.565 258.432 226.881 258.42C226.197 258.432 225.663 258.6 225.279 258.924C224.907 259.248 224.721 259.68 224.721 260.22C224.721 260.796 224.907 261.246 225.279 261.57C225.663 261.882 226.197 262.044 226.881 262.056ZM232.669 266.538V266.358L233.227 262.02H235.909V262.2L234.523 266.538H232.669ZM244.626 257.358C245.958 257.91 246.624 258.918 246.624 260.382C246.624 261.558 246.204 262.482 245.364 263.154C244.524 263.814 243.402 264.15 241.998 264.162C240.594 264.15 239.472 263.814 238.632 263.154C237.792 262.482 237.372 261.558 237.372 260.382C237.372 258.918 238.038 257.91 239.37 257.358V257.286C238.29 256.722 237.75 255.798 237.75 254.514C237.75 253.506 238.14 252.702 238.92 252.102C239.7 251.49 240.726 251.184 241.998 251.184C243.27 251.184 244.296 251.49 245.076 252.102C245.856 252.702 246.246 253.506 246.246 254.514C246.246 255.798 245.706 256.722 244.626 257.286V257.358ZM243.294 253.686C242.97 253.422 242.538 253.29 241.998 253.29C241.458 253.29 241.02 253.422 240.684 253.686C240.36 253.95 240.198 254.316 240.198 254.784C240.198 255.276 240.36 255.654 240.684 255.918C241.02 256.182 241.458 256.32 241.998 256.332C242.538 256.32 242.97 256.182 243.294 255.918C243.63 255.654 243.798 255.276 243.798 254.784C243.798 254.316 243.63 253.95 243.294 253.686ZM241.998 262.056C242.682 262.044 243.21 261.882 243.582 261.57C243.966 261.246 244.158 260.796 244.158 260.22C244.158 259.68 243.966 259.248 243.582 258.924C243.21 258.6 242.682 258.432 241.998 258.42C241.314 258.432 240.78 258.6 240.396 258.924C240.024 259.248 239.838 259.68 239.838 260.22C239.838 260.796 240.024 261.246 240.396 261.57C240.78 261.882 241.314 262.044 241.998 262.056ZM251.296 264V253.884H251.224L248.326 256.08H248.146V253.74L251.278 251.4H253.726V264H251.296ZM255.433 266.538V266.358L255.991 262.02H258.673V262.2L257.287 266.538H255.433ZM261 264V263.82C261.924 260.412 263.646 257.028 266.166 253.668V253.596H259.776V251.4H268.65V253.686C266.142 257.13 264.45 260.568 263.574 264H261ZM272.97 264V253.884H272.898L270 256.08H269.82V253.74L272.952 251.4H275.4V264H272.97ZM281.985 264.162C280.761 264.162 279.771 263.832 279.015 263.172C278.259 262.5 277.821 261.66 277.701 260.652H280.041C280.125 261.048 280.335 261.372 280.671 261.624C281.007 261.876 281.445 262.002 281.985 262.002C282.825 262.002 283.473 261.684 283.929 261.048C284.385 260.4 284.613 259.482 284.613 258.294H284.541C283.893 259.146 282.969 259.572 281.769 259.572C280.497 259.572 279.483 259.17 278.727 258.366C277.983 257.55 277.611 256.596 277.611 255.504C277.611 254.268 278.019 253.242 278.835 252.426C279.663 251.598 280.779 251.184 282.183 251.184C283.767 251.184 284.949 251.742 285.729 252.858C286.521 253.974 286.917 255.504 286.917 257.448C286.917 258.408 286.815 259.29 286.611 260.094C286.419 260.898 286.125 261.606 285.729 262.218C285.333 262.83 284.817 263.31 284.181 263.658C283.545 263.994 282.813 264.162 281.985 264.162ZM282.183 257.574C282.843 257.574 283.365 257.382 283.749 256.998C284.145 256.602 284.343 256.092 284.343 255.468C284.343 254.82 284.145 254.304 283.749 253.92C283.365 253.524 282.843 253.326 282.183 253.326C281.547 253.326 281.019 253.524 280.599 253.92C280.191 254.316 279.987 254.832 279.987 255.468C279.987 256.092 280.179 256.602 280.563 256.998C280.959 257.382 281.499 257.574 282.183 257.574Z" fill="#ECA336"/>
<path d="M230.971 285.108C229.931 285.108 229.123 284.86 228.547 284.364C227.979 283.86 227.675 283.18 227.635 282.324H229.063C229.095 282.812 229.275 283.188 229.603 283.452C229.939 283.716 230.395 283.848 230.971 283.848C232.203 283.848 232.819 283.448 232.819 282.648C232.819 282.328 232.711 282.08 232.495 281.904C232.287 281.72 231.963 281.58 231.523 281.484L230.299 281.22C229.523 281.052 228.931 280.784 228.523 280.416C228.115 280.04 227.911 279.516 227.911 278.844C227.911 278.132 228.187 277.564 228.739 277.14C229.291 276.708 230.039 276.492 230.983 276.492C231.911 276.492 232.663 276.732 233.239 277.212C233.823 277.692 234.119 278.32 234.127 279.096H232.699C232.675 278.688 232.519 278.364 232.231 278.124C231.943 277.884 231.519 277.764 230.959 277.764C229.895 277.764 229.363 278.124 229.363 278.844C229.363 279.364 229.771 279.712 230.587 279.888L231.727 280.128C233.423 280.48 234.271 281.312 234.271 282.624C234.271 283.392 233.987 284 233.419 284.448C232.859 284.888 232.043 285.108 230.971 285.108ZM237.401 285.108C236.737 285.108 236.209 284.928 235.817 284.568C235.433 284.2 235.241 283.736 235.241 283.176C235.241 282.6 235.449 282.136 235.865 281.784C236.289 281.432 236.925 281.256 237.773 281.256C238.277 281.256 238.757 281.324 239.213 281.46V280.884C239.213 280.572 239.109 280.32 238.901 280.128C238.701 279.928 238.397 279.828 237.989 279.828C237.629 279.828 237.345 279.916 237.137 280.092C236.937 280.268 236.833 280.488 236.825 280.752H235.529C235.529 280.152 235.749 279.66 236.189 279.276C236.637 278.892 237.245 278.7 238.013 278.7C238.805 278.7 239.429 278.904 239.885 279.312C240.341 279.72 240.569 280.24 240.569 280.872V285H239.369L239.273 284.268H239.225C238.841 284.828 238.233 285.108 237.401 285.108ZM237.713 284.016C238.161 284.016 238.521 283.884 238.793 283.62C239.073 283.356 239.213 283.036 239.213 282.66V282.456C238.789 282.312 238.341 282.24 237.869 282.24C237.461 282.24 237.149 282.32 236.933 282.48C236.717 282.632 236.609 282.848 236.609 283.128C236.609 283.392 236.701 283.608 236.885 283.776C237.077 283.936 237.353 284.016 237.713 284.016ZM243.643 285L241.411 278.928V278.808H242.815L244.435 283.584H244.483L246.055 278.808H247.447V278.928L245.251 285H243.643ZM249.849 277.632C249.697 277.784 249.481 277.86 249.201 277.86C248.921 277.86 248.705 277.784 248.553 277.632C248.401 277.48 248.325 277.268 248.325 276.996C248.325 276.732 248.397 276.524 248.541 276.372C248.693 276.22 248.913 276.144 249.201 276.144C249.481 276.144 249.697 276.22 249.849 276.372C250.001 276.524 250.077 276.732 250.077 276.996C250.077 277.26 250.001 277.472 249.849 277.632ZM248.517 285V278.808H249.885V285H248.517ZM251.517 285V278.808H252.729L252.837 279.612H252.885C253.269 279.004 253.873 278.7 254.697 278.7C255.385 278.7 255.929 278.9 256.329 279.3C256.729 279.7 256.929 280.252 256.929 280.956V285H255.561V281.292C255.561 280.388 255.141 279.936 254.301 279.936C253.869 279.936 253.525 280.084 253.269 280.38C253.013 280.668 252.885 281.068 252.885 281.58V285H251.517ZM261.056 287.856C260.256 287.856 259.604 287.652 259.1 287.244C258.604 286.844 258.348 286.32 258.332 285.672H259.664C259.688 285.952 259.82 286.188 260.06 286.38C260.308 286.58 260.64 286.68 261.056 286.68C261.544 286.68 261.916 286.552 262.172 286.296C262.428 286.048 262.556 285.72 262.556 285.312V284.256H262.508C262.132 284.824 261.54 285.108 260.732 285.108C259.924 285.108 259.292 284.812 258.836 284.22C258.388 283.628 258.16 282.856 258.152 281.904C258.16 280.928 258.392 280.152 258.848 279.576C259.312 278.992 259.94 278.7 260.732 278.7C261.54 278.7 262.132 278.984 262.508 279.552H262.556L262.712 278.808H263.924V285.336C263.924 286.08 263.66 286.684 263.132 287.148C262.612 287.62 261.92 287.856 261.056 287.856ZM261.068 283.896C261.588 283.896 261.972 283.712 262.22 283.344C262.476 282.968 262.604 282.488 262.604 281.904C262.604 281.328 262.476 280.852 262.22 280.476C261.964 280.1 261.58 279.912 261.068 279.912C260.54 279.912 260.152 280.096 259.904 280.464C259.664 280.832 259.544 281.312 259.544 281.904C259.544 282.496 259.664 282.976 259.904 283.344C260.152 283.712 260.54 283.896 261.068 283.896ZM267.776 285.108C266.96 285.108 266.32 284.912 265.856 284.52C265.4 284.128 265.164 283.6 265.148 282.936H266.516C266.516 283.24 266.628 283.484 266.852 283.668C267.076 283.844 267.384 283.932 267.776 283.932C268.568 283.932 268.964 283.7 268.964 283.236C268.964 282.876 268.692 282.64 268.148 282.528L267.056 282.324C265.912 282.092 265.34 281.484 265.34 280.5C265.34 279.98 265.552 279.552 265.976 279.216C266.408 278.872 266.992 278.7 267.728 278.7C268.472 278.7 269.068 278.888 269.516 279.264C269.972 279.64 270.2 280.128 270.2 280.728H268.856C268.84 280.44 268.732 280.216 268.532 280.056C268.332 279.888 268.056 279.804 267.704 279.804C267.392 279.804 267.14 279.868 266.948 279.996C266.764 280.116 266.672 280.288 266.672 280.512C266.672 280.872 266.944 281.096 267.488 281.184L268.544 281.388C269.136 281.516 269.584 281.72 269.888 282C270.192 282.272 270.344 282.684 270.344 283.236C270.344 283.82 270.1 284.28 269.612 284.616C269.132 284.944 268.52 285.108 267.776 285.108Z" fill="#676875"/>
<path d="M350.311 227.758C350.229 228.52 349.933 229.135 349.423 229.604C348.913 230.072 348.148 230.383 347.129 230.535L350.935 235H349.089L345.292 230.562L345.468 229.278H346.276C346.563 229.278 346.815 229.267 347.032 229.243C347.249 229.22 347.437 229.188 347.595 229.146C347.759 229.1 347.899 229.044 348.017 228.979C348.134 228.909 348.242 228.83 348.342 228.742C348.6 228.496 348.767 228.168 348.843 227.758H345.292V226.475H348.825C348.778 226.246 348.702 226.053 348.597 225.895C348.497 225.73 348.365 225.584 348.201 225.455C348.037 225.326 347.82 225.232 347.551 225.174C347.287 225.115 346.933 225.086 346.487 225.086H345.292V223.803H352.886V225.086H349.511C349.716 225.232 349.886 225.426 350.021 225.666C350.155 225.906 350.249 226.176 350.302 226.475H352.886V227.758H350.311ZM357.892 235V224.578H357.82L354.922 226.792H354.742V224.776L357.874 222.4H359.962V235H357.892ZM366.889 235.162C365.593 235.162 364.537 234.802 363.721 234.082C362.917 233.35 362.515 232.444 362.515 231.364H364.585C364.609 231.916 364.819 232.384 365.215 232.768C365.611 233.14 366.169 233.326 366.889 233.326C367.681 233.326 368.269 233.098 368.653 232.642C369.037 232.174 369.229 231.574 369.229 230.842C369.229 230.146 369.031 229.57 368.635 229.114C368.251 228.658 367.675 228.43 366.907 228.43C366.019 228.43 365.305 228.796 364.765 229.528H362.713L363.199 222.4H370.561V224.254H364.927L364.693 227.566H364.765C365.365 226.99 366.181 226.702 367.213 226.702C368.461 226.702 369.457 227.092 370.201 227.872C370.945 228.64 371.317 229.618 371.317 230.806C371.317 232.114 370.933 233.17 370.165 233.974C369.397 234.766 368.305 235.162 366.889 235.162ZM372.77 237.484V237.304L373.328 233.074H375.65V233.254L374.39 237.484H372.77ZM377.509 235V233.344L381.739 228.79C382.447 228.022 382.921 227.452 383.161 227.08C383.413 226.696 383.539 226.27 383.539 225.802C383.539 225.262 383.371 224.83 383.035 224.506C382.699 224.182 382.219 224.02 381.595 224.02C380.959 224.02 380.449 224.206 380.065 224.578C379.693 224.938 379.507 225.466 379.507 226.162H377.473C377.473 224.95 377.839 223.984 378.571 223.264C379.315 222.544 380.323 222.184 381.595 222.184C382.819 222.184 383.797 222.514 384.529 223.174C385.273 223.834 385.645 224.686 385.645 225.73C385.645 226.378 385.477 226.99 385.141 227.566C384.805 228.13 384.223 228.856 383.395 229.744L380.299 233.056V233.128H385.843V235H377.509ZM388.603 235V234.82C389.551 231.208 391.291 227.722 393.823 224.362V224.29H387.361V222.4H395.947V224.38C393.403 227.848 391.669 231.388 390.745 235H388.603ZM401.786 235V232.498H396.134V230.446L401.156 222.4H403.856V230.662H405.476V232.498H403.856V235H401.786ZM398.15 230.662H401.786V224.74H401.714L398.15 230.59V230.662Z" fill="#676875"/>
<rect opacity="0.05" x="344" y="247" width="80" height="8" rx="4" fill="#1D2145"/>
<path d="M350.311 288.758C350.229 289.52 349.933 290.135 349.423 290.604C348.913 291.072 348.148 291.383 347.129 291.535L350.935 296H349.089L345.292 291.562L345.468 290.278H346.276C346.563 290.278 346.815 290.267 347.032 290.243C347.249 290.22 347.437 290.188 347.595 290.146C347.759 290.1 347.899 290.044 348.017 289.979C348.134 289.909 348.242 289.83 348.342 289.742C348.6 289.496 348.767 289.168 348.843 288.758H345.292V287.475H348.825C348.778 287.246 348.702 287.053 348.597 286.895C348.497 286.73 348.365 286.584 348.201 286.455C348.037 286.326 347.82 286.232 347.551 286.174C347.287 286.115 346.933 286.086 346.487 286.086H345.292V284.803H352.886V286.086H349.511C349.716 286.232 349.886 286.426 350.021 286.666C350.155 286.906 350.249 287.176 350.302 287.475H352.886V288.758H350.311ZM357.892 296V285.578H357.82L354.922 287.792H354.742V285.776L357.874 283.4H359.962V296H357.892ZM362.083 298.484V298.304L362.641 294.074H364.963V294.254L363.703 298.484H362.083ZM368.369 296V285.578H368.297L365.399 287.792H365.219V285.776L368.351 283.4H370.439V296H368.369ZM373.855 296V295.82C374.803 292.208 376.543 288.722 379.075 285.362V285.29H372.613V283.4H381.199V285.38C378.655 288.848 376.921 292.388 375.997 296H373.855ZM381.383 298.484V298.304L381.941 294.074H384.263V294.254L383.003 298.484H381.383ZM387.669 296V285.578H387.597L384.699 287.792H384.519V285.776L387.651 283.4H389.739V296H387.669ZM400.482 294.416C399.738 295.58 398.574 296.162 396.99 296.162C395.406 296.162 394.236 295.58 393.48 294.416C392.736 293.252 392.364 291.668 392.364 289.664C392.364 287.672 392.736 286.094 393.48 284.93C394.236 283.766 395.406 283.184 396.99 283.184C398.574 283.184 399.738 283.766 400.482 284.93C401.238 286.094 401.616 287.672 401.616 289.664C401.616 291.668 401.238 293.252 400.482 294.416ZM395.028 293.12C395.4 293.924 396.054 294.326 396.99 294.326C397.926 294.326 398.58 293.924 398.952 293.12C399.324 292.316 399.51 291.164 399.51 289.664C399.51 288.176 399.318 287.03 398.934 286.226C398.562 285.422 397.914 285.02 396.99 285.02C396.066 285.02 395.412 285.422 395.028 286.226C394.656 287.03 394.47 288.176 394.47 289.664C394.47 291.164 394.656 292.316 395.028 293.12ZM406.619 296V285.578H406.547L403.649 287.792H403.469V285.776L406.601 283.4H408.689V296H406.619Z" fill="#676875"/>
<rect opacity="0.05" x="344" y="309" width="110" height="8" rx="4" fill="#1D2145"/>
<defs>
<filter id="filter0_dd" x="96" y="34" width="376" height="226" filterUnits="userSpaceOnUse" color-interpolation-filters="sRGB">
<feFlood flood-opacity="0" result="BackgroundImageFix"/>
<feColorMatrix in="SourceAlpha" type="matrix" values="0 0 0 0 0 0 0 0 0 0 0 0 0 0 0 0 0 0 127 0"/>
<feMorphology radius="4" operator="erode" in="SourceAlpha" result="effect1_dropShadow"/>
<feOffset dy="7"/>
<feGaussianBlur stdDeviation="16"/>
<feColorMatrix type="matrix" values="0 0 0 0 0.0941176 0 0 0 0 0.152941 0 0 0 0 0.294118 0 0 0 0.12 0"/>
<feBlend mode="normal" in2="BackgroundImageFix" result="effect1_dropShadow"/>
<feColorMatrix in="SourceAlpha" type="matrix" values="0 0 0 0 0 0 0 0 0 0 0 0 0 0 0 0 0 0 127 0"/>
<feMorphology radius="6" operator="erode" in="SourceAlpha" result="effect2_dropShadow"/>
<feOffset dy="4"/>
<feGaussianBlur stdDeviation="5"/>
<feColorMatrix type="matrix" values="0 0 0 0 0.0941176 0 0 0 0 0.152941 0 0 0 0 0.294118 0 0 0 0.1 0"/>
<feBlend mode="normal" in2="effect1_dropShadow" result="effect2_dropShadow"/>
<feBlend mode="normal" in="SourceGraphic" in2="effect2_dropShadow" result="shape"/>
</filter>
<filter id="filter1_dd" x="136" y="161" width="376" height="226" filterUnits="userSpaceOnUse" color-interpolation-filters="sRGB">
<feFlood flood-opacity="0" result="BackgroundImageFix"/>
<feColorMatrix in="SourceAlpha" type="matrix" values="0 0 0 0 0 0 0 0 0 0 0 0 0 0 0 0 0 0 127 0"/>
<feMorphology radius="4" operator="erode" in="SourceAlpha" result="effect1_dropShadow"/>
<feOffset dy="7"/>
<feGaussianBlur stdDeviation="16"/>
<feColorMatrix type="matrix" values="0 0 0 0 0.0941176 0 0 0 0 0.152941 0 0 0 0 0.294118 0 0 0 0.12 0"/>
<feBlend mode="normal" in2="BackgroundImageFix" result="effect1_dropShadow"/>
<feColorMatrix in="SourceAlpha" type="matrix" values="0 0 0 0 0 0 0 0 0 0 0 0 0 0 0 0 0 0 127 0"/>
<feMorphology radius="6" operator="erode" in="SourceAlpha" result="effect2_dropShadow"/>
<feOffset dy="4"/>
<feGaussianBlur stdDeviation="5"/>
<feColorMatrix type="matrix" values="0 0 0 0 0.0941176 0 0 0 0 0.152941 0 0 0 0 0.294118 0 0 0 0.1 0"/>
<feBlend mode="normal" in2="effect1_dropShadow" result="effect2_dropShadow"/>
<feBlend mode="normal" in="SourceGraphic" in2="effect2_dropShadow" result="shape"/>
</filter>
<radialGradient id="paint0_radial" cx="0" cy="0" r="1" gradientUnits="userSpaceOnUse" gradientTransform="translate(172 251) rotate(90) scale(120)">
<stop stop-color="white"/>
<stop offset="0.265625" stop-color="white" stop-opacity="0.5"/>
<stop offset="1" stop-color="white" stop-opacity="0"/>
</radialGradient>
</defs>
</svg>
