<svg width="561" height="359" viewBox="0 0 561 359" fill="none" xmlns="http://www.w3.org/2000/svg">
<mask id="mask0" mask-type="alpha" maskUnits="userSpaceOnUse" x="321" y="21" width="240" height="240">
<rect x="321" y="21" width="240" height="240" fill="url(#paint0_radial)"/>
</mask>
<g mask="url(#mask0)">
<g opacity="0.3">
<circle cx="323" cy="23" r="2.33333" fill="#1D2145" stroke="#1D2145" stroke-width="0.666667"/>
<circle opacity="0.8" cx="351.444" cy="23" r="2.33333" fill="#1D2145" stroke="#1D2145" stroke-width="0.666667"/>
<circle cx="379.889" cy="23" r="2.33333" fill="#1D2145" stroke="#1D2145" stroke-width="0.666667"/>
<circle opacity="0.4" cx="408.333" cy="23" r="2.33333" fill="#1D2145" stroke="#1D2145" stroke-width="0.666667"/>
<circle cx="436.778" cy="23" r="2.33333" fill="#1D2145" stroke="#1D2145" stroke-width="0.666667"/>
<circle cx="465.222" cy="23" r="2.33333" fill="#1D2145" stroke="#1D2145" stroke-width="0.666667"/>
<circle opacity="0.6" cx="493.667" cy="23" r="2.33333" fill="#1D2145" stroke="#1D2145" stroke-width="0.666667"/>
<circle opacity="0.4" cx="522.111" cy="23" r="2.33333" fill="#1D2145" stroke="#1D2145" stroke-width="0.666667"/>
<circle opacity="0.6" cx="550.556" cy="23" r="2.33333" fill="#1D2145" stroke="#1D2145" stroke-width="0.666667"/>
<circle cx="323" cy="51.4445" r="2.33333" fill="#1D2145" stroke="#1D2145" stroke-width="0.666667"/>
<circle opacity="0.6" cx="351.444" cy="51.4445" r="2.33333" fill="#1D2145" stroke="#1D2145" stroke-width="0.666667"/>
<circle cx="379.889" cy="51.4445" r="2.33333" fill="#1D2145" stroke="#1D2145" stroke-width="0.666667"/>
<circle cx="408.333" cy="51.4445" r="2.33333" fill="#1D2145" stroke="#1D2145" stroke-width="0.666667"/>
<circle opacity="0.6" cx="436.778" cy="51.4445" r="2.33333" fill="#1D2145" stroke="#1D2145" stroke-width="0.666667"/>
<circle opacity="0.4" cx="465.222" cy="51.4445" r="2.33333" fill="#1D2145" stroke="#1D2145" stroke-width="0.666667"/>
<circle cx="493.667" cy="51.4445" r="2.33333" fill="#1D2145" stroke="#1D2145" stroke-width="0.666667"/>
<circle opacity="0.4" cx="522.111" cy="51.4445" r="2.33333" fill="#1D2145" stroke="#1D2145" stroke-width="0.666667"/>
<circle cx="550.556" cy="51.4445" r="2.33333" fill="#1D2145" stroke="#1D2145" stroke-width="0.666667"/>
<circle cx="323" cy="79.8889" r="2.33333" fill="#1D2145" stroke="#1D2145" stroke-width="0.666667"/>
<circle cx="351.444" cy="79.8889" r="2.33333" fill="#1D2145" stroke="#1D2145" stroke-width="0.666667"/>
<circle cx="379.889" cy="79.8889" r="2.33333" fill="#1D2145" stroke="#1D2145" stroke-width="0.666667"/>
<circle cx="408.333" cy="79.8889" r="2.33333" fill="#1D2145" stroke="#1D2145" stroke-width="0.666667"/>
<circle opacity="0.6" cx="436.778" cy="79.8889" r="2.33333" fill="#1D2145" stroke="#1D2145" stroke-width="0.666667"/>
<circle cx="465.222" cy="79.8889" r="2.33333" fill="#1D2145" stroke="#1D2145" stroke-width="0.666667"/>
<circle opacity="0.8" cx="493.667" cy="79.8889" r="2.33333" fill="#1D2145" stroke="#1D2145" stroke-width="0.666667"/>
<circle cx="522.111" cy="79.8889" r="2.33333" fill="#1D2145" stroke="#1D2145" stroke-width="0.666667"/>
<circle opacity="0.4" cx="550.556" cy="79.8889" r="2.33333" fill="#1D2145" stroke="#1D2145" stroke-width="0.666667"/>
<circle opacity="0.6" cx="323" cy="108.333" r="2.33333" fill="#1D2145" stroke="#1D2145" stroke-width="0.666667"/>
<circle opacity="0.8" cx="351.444" cy="108.333" r="2.33333" fill="#1D2145" stroke="#1D2145" stroke-width="0.666667"/>
<circle opacity="0.6" cx="379.889" cy="108.333" r="2.33333" fill="#1D2145" stroke="#1D2145" stroke-width="0.666667"/>
<circle cx="408.333" cy="108.333" r="2.33333" fill="#1D2145" stroke="#1D2145" stroke-width="0.666667"/>
<circle cx="436.778" cy="108.333" r="2.33333" fill="#1D2145" stroke="#1D2145" stroke-width="0.666667"/>
<circle cx="465.222" cy="108.333" r="2.33333" fill="#1D2145" stroke="#1D2145" stroke-width="0.666667"/>
<circle opacity="0.4" cx="493.667" cy="108.333" r="2.33333" fill="#1D2145" stroke="#1D2145" stroke-width="0.666667"/>
<circle opacity="0.4" cx="522.111" cy="108.333" r="2.33333" fill="#1D2145" stroke="#1D2145" stroke-width="0.666667"/>
<circle opacity="0.6" cx="550.556" cy="108.333" r="2.33333" fill="#1D2145" stroke="#1D2145" stroke-width="0.666667"/>
<circle cx="323" cy="136.778" r="2.33333" fill="#1D2145" stroke="#1D2145" stroke-width="0.666667"/>
<circle cx="351.444" cy="136.778" r="2.33333" fill="#1D2145" stroke="#1D2145" stroke-width="0.666667"/>
<circle cx="379.889" cy="136.778" r="2.33333" fill="#1D2145" stroke="#1D2145" stroke-width="0.666667"/>
<circle opacity="0.6" cx="408.333" cy="136.778" r="2.33333" fill="#1D2145" stroke="#1D2145" stroke-width="0.666667"/>
<circle opacity="0.6" cx="436.778" cy="136.778" r="2.33333" fill="#1D2145" stroke="#1D2145" stroke-width="0.666667"/>
<circle opacity="0.4" cx="465.222" cy="136.778" r="2.33333" fill="#1D2145" stroke="#1D2145" stroke-width="0.666667"/>
<circle opacity="0.8" cx="493.667" cy="136.778" r="2.33333" fill="#1D2145" stroke="#1D2145" stroke-width="0.666667"/>
<circle cx="522.111" cy="136.778" r="2.33333" fill="#1D2145" stroke="#1D2145" stroke-width="0.666667"/>
<circle opacity="0.4" cx="550.556" cy="136.778" r="2.33333" fill="#1D2145" stroke="#1D2145" stroke-width="0.666667"/>
<circle opacity="0.6" cx="323" cy="165.222" r="2.33333" fill="#1D2145" stroke="#1D2145" stroke-width="0.666667"/>
<circle opacity="0.6" cx="351.444" cy="165.222" r="2.33333" fill="#1D2145" stroke="#1D2145" stroke-width="0.666667"/>
<circle opacity="0.6" cx="379.889" cy="165.222" r="2.33333" fill="#1D2145" stroke="#1D2145" stroke-width="0.666667"/>
<circle opacity="0.6" cx="408.333" cy="165.222" r="2.33333" fill="#1D2145" stroke="#1D2145" stroke-width="0.666667"/>
<circle cx="436.778" cy="165.222" r="2.33333" fill="#1D2145" stroke="#1D2145" stroke-width="0.666667"/>
<circle opacity="0.6" cx="465.222" cy="165.222" r="2.33333" fill="#1D2145" stroke="#1D2145" stroke-width="0.666667"/>
<circle cx="493.667" cy="165.222" r="2.33333" fill="#1D2145" stroke="#1D2145" stroke-width="0.666667"/>
<circle cx="522.111" cy="165.222" r="2.33333" fill="#1D2145" stroke="#1D2145" stroke-width="0.666667"/>
<circle opacity="0.4" cx="550.556" cy="165.222" r="2.33333" fill="#1D2145" stroke="#1D2145" stroke-width="0.666667"/>
<circle opacity="0.6" cx="323" cy="193.667" r="2.33333" fill="#1D2145" stroke="#1D2145" stroke-width="0.666667"/>
<circle cx="351.444" cy="193.667" r="2.33333" fill="#1D2145" stroke="#1D2145" stroke-width="0.666667"/>
<circle opacity="0.8" cx="379.889" cy="193.667" r="2.33333" fill="#1D2145" stroke="#1D2145" stroke-width="0.666667"/>
<circle opacity="0.8" cx="408.333" cy="193.667" r="2.33333" fill="#1D2145" stroke="#1D2145" stroke-width="0.666667"/>
<circle opacity="0.4" cx="436.778" cy="193.667" r="2.33333" fill="#1D2145" stroke="#1D2145" stroke-width="0.666667"/>
<circle cx="465.222" cy="193.667" r="2.33333" fill="#1D2145" stroke="#1D2145" stroke-width="0.666667"/>
<circle cx="493.667" cy="193.667" r="2.33333" fill="#1D2145" stroke="#1D2145" stroke-width="0.666667"/>
<circle opacity="0.8" cx="522.111" cy="193.667" r="2.33333" fill="#1D2145" stroke="#1D2145" stroke-width="0.666667"/>
<circle cx="550.556" cy="193.667" r="2.33333" fill="#1D2145" stroke="#1D2145" stroke-width="0.666667"/>
<circle opacity="0.6" cx="323" cy="222.111" r="2.33333" fill="#1D2145" stroke="#1D2145" stroke-width="0.666667"/>
<circle opacity="0.8" cx="351.444" cy="222.111" r="2.33333" fill="#1D2145" stroke="#1D2145" stroke-width="0.666667"/>
<circle opacity="0.8" cx="379.889" cy="222.111" r="2.33333" fill="#1D2145" stroke="#1D2145" stroke-width="0.666667"/>
<circle cx="408.333" cy="222.111" r="2.33333" fill="#1D2145" stroke="#1D2145" stroke-width="0.666667"/>
<circle cx="436.778" cy="222.111" r="2.33333" fill="#1D2145" stroke="#1D2145" stroke-width="0.666667"/>
<circle opacity="0.8" cx="465.222" cy="222.111" r="2.33333" fill="#1D2145" stroke="#1D2145" stroke-width="0.666667"/>
<circle opacity="0.4" cx="493.667" cy="222.111" r="2.33333" fill="#1D2145" stroke="#1D2145" stroke-width="0.666667"/>
<circle opacity="0.4" cx="522.111" cy="222.111" r="2.33333" fill="#1D2145" stroke="#1D2145" stroke-width="0.666667"/>
<circle cx="550.556" cy="222.111" r="2.33333" fill="#1D2145" stroke="#1D2145" stroke-width="0.666667"/>
<circle cx="323" cy="250.556" r="2.33333" fill="#1D2145" stroke="#1D2145" stroke-width="0.666667"/>
<circle cx="351.444" cy="250.556" r="2.33333" fill="#1D2145" stroke="#1D2145" stroke-width="0.666667"/>
<circle cx="379.889" cy="250.556" r="2.33333" fill="#1D2145" stroke="#1D2145" stroke-width="0.666667"/>
<circle opacity="0.4" cx="408.333" cy="250.556" r="2.33333" fill="#1D2145" stroke="#1D2145" stroke-width="0.666667"/>
<circle cx="436.778" cy="250.556" r="2.33333" fill="#1D2145" stroke="#1D2145" stroke-width="0.666667"/>
<circle opacity="0.4" cx="465.222" cy="250.556" r="2.33333" fill="#1D2145" stroke="#1D2145" stroke-width="0.666667"/>
<circle cx="493.667" cy="250.556" r="2.33333" fill="#1D2145" stroke="#1D2145" stroke-width="0.666667"/>
<circle cx="522.111" cy="250.556" r="2.33333" fill="#1D2145" stroke="#1D2145" stroke-width="0.666667"/>
<circle cx="550.556" cy="250.556" r="2.33333" fill="#1D2145" stroke="#1D2145" stroke-width="0.666667"/>
</g>
</g>
<g filter="url(#filter0_dd)">
<rect x="122" y="69" width="320" height="128" rx="20" fill="white"/>
</g>
<rect opacity="0.2" x="142" y="89" width="121" height="20" rx="6" fill="#55D38F"/>
<path d="M155.709 95.3H157.216V103H155.709V99.7H152.376V103H150.869V95.3H152.376V98.347H155.709V95.3ZM162.159 103.099C160.978 103.099 160.076 102.732 159.453 101.999C158.83 101.258 158.518 100.309 158.518 99.15C158.518 97.9913 158.83 97.0453 159.453 96.312C160.076 95.5713 160.978 95.201 162.159 95.201C163.332 95.201 164.231 95.5713 164.854 96.312C165.485 97.0453 165.8 97.9913 165.8 99.15C165.8 100.309 165.485 101.258 164.854 101.999C164.231 102.732 163.332 103.099 162.159 103.099ZM160.586 101.042C160.938 101.497 161.462 101.724 162.159 101.724C162.856 101.724 163.38 101.497 163.732 101.042C164.084 100.58 164.26 99.9493 164.26 99.15C164.26 98.3507 164.084 97.7237 163.732 97.269C163.38 96.807 162.856 96.576 162.159 96.576C161.462 96.576 160.938 96.807 160.586 97.269C160.234 97.7237 160.058 98.3507 160.058 99.15C160.058 99.9493 160.234 100.58 160.586 101.042ZM167.1 103V95.3H168.772L171.06 99.161H171.104L173.392 95.3H175.042V103H173.59V97.687H173.546L171.126 101.713H171.016L168.596 97.654H168.552V103H167.1ZM176.779 103V95.3H182.114V96.653H178.286V98.358H181.773V99.7H178.286V101.658H182.114V103H176.779ZM186.64 103V95.3H188.147V101.647H191.7V103H186.64ZM195.868 103.099C194.687 103.099 193.785 102.732 193.162 101.999C192.539 101.258 192.227 100.309 192.227 99.15C192.227 97.9913 192.539 97.0453 193.162 96.312C193.785 95.5713 194.687 95.201 195.868 95.201C197.041 95.201 197.94 95.5713 198.563 96.312C199.194 97.0453 199.509 97.9913 199.509 99.15C199.509 100.309 199.194 101.258 198.563 101.999C197.94 102.732 197.041 103.099 195.868 103.099ZM194.295 101.042C194.647 101.497 195.171 101.724 195.868 101.724C196.565 101.724 197.089 101.497 197.441 101.042C197.793 100.58 197.969 99.9493 197.969 99.15C197.969 98.3507 197.793 97.7237 197.441 97.269C197.089 96.807 196.565 96.576 195.868 96.576C195.171 96.576 194.647 96.807 194.295 97.269C193.943 97.7237 193.767 98.3507 193.767 99.15C193.767 99.9493 193.943 100.58 194.295 101.042ZM204.586 95.3L207.292 102.89V103H205.631L205.103 101.383H202.089L201.561 103H199.977V102.89L202.672 95.3H204.586ZM202.529 100.052H204.663L203.618 96.84H203.574L202.529 100.052ZM208.329 103V95.3H210.078L213.224 100.646H213.268V95.3H214.764V103H213.004L209.858 97.687H209.814V103H208.329ZM222.852 103.099C221.672 103.099 220.77 102.732 220.146 101.999C219.523 101.258 219.211 100.309 219.211 99.15C219.211 97.9913 219.523 97.0453 220.146 96.312C220.77 95.5713 221.672 95.201 222.852 95.201C224.026 95.201 224.924 95.5713 225.547 96.312C226.178 97.0453 226.493 97.9913 226.493 99.15C226.493 100.309 226.178 101.258 225.547 101.999C224.924 102.732 224.026 103.099 222.852 103.099ZM221.279 101.042C221.631 101.497 222.156 101.724 222.852 101.724C223.549 101.724 224.073 101.497 224.425 101.042C224.777 100.58 224.953 99.9493 224.953 99.15C224.953 98.3507 224.777 97.7237 224.425 97.269C224.073 96.807 223.549 96.576 222.852 96.576C222.156 96.576 221.631 96.807 221.279 97.269C220.927 97.7237 220.751 98.3507 220.751 99.15C220.751 99.9493 220.927 100.58 221.279 101.042ZM227.794 103V95.3H233.096V96.653H229.301V98.556H232.744V99.909H229.301V103H227.794ZM234.475 103V95.3H239.777V96.653H235.982V98.556H239.425V99.909H235.982V103H234.475ZM241.157 103V95.3H246.492V96.653H242.664V98.358H246.151V99.7H242.664V101.658H246.492V103H241.157ZM252.271 100.008L254.185 102.89V103H252.447L250.676 100.184H249.378V103H247.871V95.3H251.248C252.033 95.3 252.656 95.531 253.118 95.993C253.587 96.455 253.822 97.027 253.822 97.709C253.822 98.2663 253.683 98.7467 253.404 99.15C253.125 99.546 252.748 99.832 252.271 100.008ZM249.378 96.653V98.842H251.171C251.538 98.842 251.813 98.7393 251.996 98.534C252.179 98.3213 252.271 98.05 252.271 97.72C252.271 97.412 252.176 97.159 251.985 96.961C251.802 96.7557 251.53 96.653 251.171 96.653H249.378Z" fill="#55D38F"/>
<path d="M146.725 134.135C145.425 134.135 144.415 133.825 143.695 133.205C142.985 132.575 142.605 131.725 142.555 130.655H144.34C144.38 131.265 144.605 131.735 145.015 132.065C145.435 132.395 146.005 132.56 146.725 132.56C148.265 132.56 149.035 132.06 149.035 131.06C149.035 130.66 148.9 130.35 148.63 130.13C148.37 129.9 147.965 129.725 147.415 129.605L145.885 129.275C144.915 129.065 144.175 128.73 143.665 128.27C143.155 127.8 142.9 127.145 142.9 126.305C142.9 125.415 143.245 124.705 143.935 124.175C144.625 123.635 145.56 123.365 146.74 123.365C147.9 123.365 148.84 123.665 149.56 124.265C150.29 124.865 150.66 125.65 150.67 126.62H148.885C148.855 126.11 148.66 125.705 148.3 125.405C147.94 125.105 147.41 124.955 146.71 124.955C145.38 124.955 144.715 125.405 144.715 126.305C144.715 126.955 145.225 127.39 146.245 127.61L147.67 127.91C149.79 128.35 150.85 129.39 150.85 131.03C150.85 131.99 150.495 132.75 149.785 133.31C149.085 133.86 148.065 134.135 146.725 134.135ZM154.763 134.135C153.933 134.135 153.273 133.91 152.783 133.46C152.303 133 152.063 132.42 152.063 131.72C152.063 131 152.323 130.42 152.843 129.98C153.373 129.54 154.168 129.32 155.228 129.32C155.858 129.32 156.458 129.405 157.028 129.575V128.855C157.028 128.465 156.898 128.15 156.638 127.91C156.388 127.66 156.008 127.535 155.498 127.535C155.048 127.535 154.693 127.645 154.433 127.865C154.183 128.085 154.053 128.36 154.043 128.69H152.423C152.423 127.94 152.698 127.325 153.248 126.845C153.808 126.365 154.568 126.125 155.528 126.125C156.518 126.125 157.298 126.38 157.868 126.89C158.438 127.4 158.723 128.05 158.723 128.84V134H157.223L157.103 133.085H157.043C156.563 133.785 155.803 134.135 154.763 134.135ZM155.153 132.77C155.713 132.77 156.163 132.605 156.503 132.275C156.853 131.945 157.028 131.545 157.028 131.075V130.82C156.498 130.64 155.938 130.55 155.348 130.55C154.838 130.55 154.448 130.65 154.178 130.85C153.908 131.04 153.773 131.31 153.773 131.66C153.773 131.99 153.888 132.26 154.118 132.47C154.358 132.67 154.703 132.77 155.153 132.77ZM162.564 134L159.774 126.41V126.26H161.529L163.554 132.23H163.614L165.579 126.26H167.319V126.41L164.574 134H162.564ZM171.558 134.135C170.418 134.135 169.523 133.76 168.873 133.01C168.223 132.26 167.898 131.3 167.898 130.13C167.898 128.96 168.208 128 168.828 127.25C169.458 126.5 170.358 126.125 171.528 126.125C172.628 126.125 173.483 126.48 174.093 127.19C174.713 127.89 175.022 128.79 175.022 129.89V130.61H169.668C169.668 131.25 169.828 131.76 170.148 132.14C170.478 132.51 170.948 132.695 171.558 132.695C172.488 132.695 173.053 132.345 173.253 131.645H174.918C174.808 132.365 174.443 132.96 173.823 133.43C173.213 133.9 172.458 134.135 171.558 134.135ZM169.683 129.395H173.268C173.258 128.855 173.103 128.42 172.803 128.09C172.513 127.75 172.088 127.58 171.528 127.58C170.938 127.58 170.488 127.75 170.178 128.09C169.868 128.42 169.703 128.855 169.683 129.395ZM184.228 134.135C183.038 134.135 182.128 133.765 181.498 133.025C180.878 132.285 180.568 131.32 180.568 130.13C180.568 128.95 180.883 127.99 181.513 127.25C182.153 126.5 183.058 126.125 184.228 126.125C185.398 126.125 186.298 126.5 186.928 127.25C187.568 127.99 187.888 128.95 187.888 130.13C187.888 131.32 187.573 132.285 186.943 133.025C186.313 133.765 185.408 134.135 184.228 134.135ZM184.228 132.62C185.508 132.62 186.148 131.79 186.148 130.13C186.148 129.34 185.988 128.73 185.668 128.3C185.348 127.86 184.868 127.64 184.228 127.64C183.588 127.64 183.108 127.86 182.788 128.3C182.468 128.73 182.308 129.34 182.308 130.13C182.308 130.92 182.468 131.535 182.788 131.975C183.118 132.405 183.598 132.62 184.228 132.62ZM189.574 134V126.26H191.089L191.224 127.265H191.284C191.764 126.505 192.519 126.125 193.549 126.125C194.409 126.125 195.089 126.375 195.589 126.875C196.089 127.375 196.339 128.065 196.339 128.945V134H194.629V129.365C194.629 128.235 194.104 127.67 193.054 127.67C192.514 127.67 192.084 127.855 191.764 128.225C191.444 128.585 191.284 129.085 191.284 129.725V134H189.574ZM203.658 137.435V137.285L204.888 133.97L204.708 133.955L201.888 126.41V126.26H203.673L205.683 132.08H205.743L207.753 126.26H209.568V126.41L205.458 137.435H203.658ZM213.877 134.135C212.687 134.135 211.777 133.765 211.147 133.025C210.527 132.285 210.217 131.32 210.217 130.13C210.217 128.95 210.532 127.99 211.162 127.25C211.802 126.5 212.707 126.125 213.877 126.125C215.047 126.125 215.947 126.5 216.577 127.25C217.217 127.99 217.537 128.95 217.537 130.13C217.537 131.32 217.222 132.285 216.592 133.025C215.962 133.765 215.057 134.135 213.877 134.135ZM213.877 132.62C215.157 132.62 215.797 131.79 215.797 130.13C215.797 129.34 215.637 128.73 215.317 128.3C214.997 127.86 214.517 127.64 213.877 127.64C213.237 127.64 212.757 127.86 212.437 128.3C212.117 128.73 211.957 129.34 211.957 130.13C211.957 130.92 212.117 131.535 212.437 131.975C212.767 132.405 213.247 132.62 213.877 132.62ZM224.083 126.26H225.793V131.06C225.793 131.96 225.498 132.695 224.908 133.265C224.328 133.835 223.513 134.12 222.463 134.12C221.413 134.12 220.593 133.835 220.003 133.265C219.423 132.685 219.133 131.95 219.133 131.06V126.26H220.843V130.79C220.843 131.96 221.383 132.545 222.463 132.545C223.543 132.545 224.083 131.96 224.083 130.79V126.26ZM227.895 134V126.26H229.335L229.485 127.49H229.545C229.705 127.08 229.96 126.755 230.31 126.515C230.66 126.275 231.075 126.155 231.555 126.155H232.185V127.745H231.525C230.875 127.745 230.38 127.96 230.04 128.39C229.71 128.82 229.545 129.43 229.545 130.22V134H227.895ZM238.315 134V123.5H240.07V132.41H245.02V134H238.315ZM246.591 134V123.5H248.361V134H246.591ZM255.201 134.135C253.661 134.135 252.471 133.645 251.631 132.665C250.791 131.675 250.371 130.375 250.371 128.765C250.371 127.145 250.791 125.84 251.631 124.85C252.471 123.86 253.661 123.365 255.201 123.365C256.471 123.365 257.496 123.72 258.276 124.43C259.056 125.14 259.496 126.065 259.596 127.205H257.796C257.726 126.535 257.471 126 257.031 125.6C256.591 125.19 255.981 124.985 255.201 124.985C254.181 124.985 253.421 125.335 252.921 126.035C252.421 126.725 252.171 127.635 252.171 128.765C252.171 129.895 252.421 130.805 252.921 131.495C253.421 132.185 254.181 132.53 255.201 132.53C255.961 132.53 256.556 132.34 256.986 131.96C257.416 131.58 257.691 131.06 257.811 130.4H259.596C259.466 131.51 259.016 132.41 258.246 133.1C257.476 133.79 256.461 134.135 255.201 134.135ZM272.631 123.5H274.386V134H272.631V129.38H267.726V134H265.971V123.5H267.726V127.775H272.631V123.5ZM279.941 134.135C278.751 134.135 277.841 133.765 277.211 133.025C276.591 132.285 276.281 131.32 276.281 130.13C276.281 128.95 276.596 127.99 277.226 127.25C277.866 126.5 278.771 126.125 279.941 126.125C281.111 126.125 282.011 126.5 282.641 127.25C283.281 127.99 283.601 128.95 283.601 130.13C283.601 131.32 283.286 132.285 282.656 133.025C282.026 133.765 281.121 134.135 279.941 134.135ZM279.941 132.62C281.221 132.62 281.861 131.79 281.861 130.13C281.861 129.34 281.701 128.73 281.381 128.3C281.061 127.86 280.581 127.64 279.941 127.64C279.301 127.64 278.821 127.86 278.501 128.3C278.181 128.73 278.021 129.34 278.021 130.13C278.021 130.92 278.181 131.535 278.501 131.975C278.831 132.405 279.311 132.62 279.941 132.62ZM290.147 126.26H291.857V131.06C291.857 131.96 291.562 132.695 290.972 133.265C290.392 133.835 289.577 134.12 288.527 134.12C287.477 134.12 286.657 133.835 286.067 133.265C285.487 132.685 285.197 131.95 285.197 131.06V126.26H286.907V130.79C286.907 131.96 287.447 132.545 288.527 132.545C289.607 132.545 290.147 131.96 290.147 130.79V126.26ZM296.734 134.135C295.714 134.135 294.914 133.89 294.334 133.4C293.764 132.91 293.469 132.25 293.449 131.42H295.159C295.159 131.8 295.299 132.105 295.579 132.335C295.859 132.555 296.244 132.665 296.734 132.665C297.724 132.665 298.219 132.375 298.219 131.795C298.219 131.345 297.879 131.05 297.199 130.91L295.834 130.655C294.404 130.365 293.689 129.605 293.689 128.375C293.689 127.725 293.954 127.19 294.484 126.77C295.024 126.34 295.754 126.125 296.674 126.125C297.604 126.125 298.349 126.36 298.909 126.83C299.479 127.3 299.764 127.91 299.764 128.66H298.084C298.064 128.3 297.929 128.02 297.679 127.82C297.429 127.61 297.084 127.505 296.644 127.505C296.254 127.505 295.939 127.585 295.699 127.745C295.469 127.895 295.354 128.11 295.354 128.39C295.354 128.84 295.694 129.12 296.374 129.23L297.694 129.485C298.434 129.645 298.994 129.9 299.374 130.25C299.754 130.59 299.944 131.105 299.944 131.795C299.944 132.525 299.639 133.1 299.029 133.52C298.429 133.93 297.664 134.135 296.734 134.135ZM303.285 124.79C303.095 124.98 302.825 125.075 302.475 125.075C302.125 125.075 301.855 124.98 301.665 124.79C301.475 124.6 301.38 124.335 301.38 123.995C301.38 123.665 301.47 123.405 301.65 123.215C301.84 123.025 302.115 122.93 302.475 122.93C302.825 122.93 303.095 123.025 303.285 123.215C303.475 123.405 303.57 123.665 303.57 123.995C303.57 124.325 303.475 124.59 303.285 124.79ZM301.62 134V126.26H303.33V134H301.62ZM305.37 134V126.26H306.885L307.02 127.265H307.08C307.56 126.505 308.315 126.125 309.345 126.125C310.205 126.125 310.885 126.375 311.385 126.875C311.885 127.375 312.135 128.065 312.135 128.945V134H310.425V129.365C310.425 128.235 309.9 127.67 308.85 127.67C308.31 127.67 307.88 127.855 307.56 128.225C307.24 128.585 307.08 129.085 307.08 129.725V134H305.37ZM317.294 137.57C316.294 137.57 315.479 137.315 314.849 136.805C314.229 136.305 313.909 135.65 313.889 134.84H315.554C315.584 135.19 315.749 135.485 316.049 135.725C316.359 135.975 316.774 136.1 317.294 136.1C317.904 136.1 318.369 135.94 318.689 135.62C319.009 135.31 319.169 134.9 319.169 134.39V133.07H319.109C318.639 133.78 317.899 134.135 316.889 134.135C315.879 134.135 315.089 133.765 314.519 133.025C313.959 132.285 313.674 131.32 313.664 130.13C313.674 128.91 313.964 127.94 314.534 127.22C315.114 126.49 315.899 126.125 316.889 126.125C317.899 126.125 318.639 126.48 319.109 127.19H319.169L319.364 126.26H320.879V134.42C320.879 135.35 320.549 136.105 319.889 136.685C319.239 137.275 318.374 137.57 317.294 137.57ZM317.309 132.62C317.959 132.62 318.439 132.39 318.749 131.93C319.069 131.46 319.229 130.86 319.229 130.13C319.229 129.41 319.069 128.815 318.749 128.345C318.429 127.875 317.949 127.64 317.309 127.64C316.649 127.64 316.164 127.87 315.854 128.33C315.554 128.79 315.404 129.39 315.404 130.13C315.404 130.87 315.554 131.47 315.854 131.93C316.164 132.39 316.649 132.62 317.309 132.62ZM327.494 134V123.5H334.469V125.09H329.249V128.06H333.989V129.65H329.249V134H327.494ZM338.251 124.79C338.061 124.98 337.791 125.075 337.441 125.075C337.091 125.075 336.821 124.98 336.631 124.79C336.441 124.6 336.346 124.335 336.346 123.995C336.346 123.665 336.436 123.405 336.616 123.215C336.806 123.025 337.081 122.93 337.441 122.93C337.791 122.93 338.061 123.025 338.251 123.215C338.441 123.405 338.536 123.665 338.536 123.995C338.536 124.325 338.441 124.59 338.251 124.79ZM336.586 134V126.26H338.296V134H336.586ZM340.336 134V126.26H341.851L341.986 127.265H342.046C342.526 126.505 343.281 126.125 344.311 126.125C345.171 126.125 345.851 126.375 346.351 126.875C346.851 127.375 347.101 128.065 347.101 128.945V134H345.391V129.365C345.391 128.235 344.866 127.67 343.816 127.67C343.276 127.67 342.846 127.855 342.526 128.225C342.206 128.585 342.046 129.085 342.046 129.725V134H340.336ZM351.33 134.135C350.5 134.135 349.84 133.91 349.35 133.46C348.87 133 348.63 132.42 348.63 131.72C348.63 131 348.89 130.42 349.41 129.98C349.94 129.54 350.735 129.32 351.795 129.32C352.425 129.32 353.025 129.405 353.595 129.575V128.855C353.595 128.465 353.465 128.15 353.205 127.91C352.955 127.66 352.575 127.535 352.065 127.535C351.615 127.535 351.26 127.645 351 127.865C350.75 128.085 350.62 128.36 350.61 128.69H348.99C348.99 127.94 349.265 127.325 349.815 126.845C350.375 126.365 351.135 126.125 352.095 126.125C353.085 126.125 353.865 126.38 354.435 126.89C355.005 127.4 355.29 128.05 355.29 128.84V134H353.79L353.67 133.085H353.61C353.13 133.785 352.37 134.135 351.33 134.135ZM351.72 132.77C352.28 132.77 352.73 132.605 353.07 132.275C353.42 131.945 353.595 131.545 353.595 131.075V130.82C353.065 130.64 352.505 130.55 351.915 130.55C351.405 130.55 351.015 130.65 350.745 130.85C350.475 131.04 350.34 131.31 350.34 131.66C350.34 131.99 350.455 132.26 350.685 132.47C350.925 132.67 351.27 132.77 351.72 132.77ZM357.328 134V126.26H358.843L358.978 127.265H359.038C359.518 126.505 360.273 126.125 361.303 126.125C362.163 126.125 362.843 126.375 363.343 126.875C363.843 127.375 364.093 128.065 364.093 128.945V134H362.383V129.365C362.383 128.235 361.858 127.67 360.808 127.67C360.268 127.67 359.838 127.855 359.518 128.225C359.198 128.585 359.038 129.085 359.038 129.725V134H357.328ZM369.312 134.135C368.142 134.135 367.232 133.775 366.582 133.055C365.942 132.325 365.622 131.35 365.622 130.13C365.622 128.91 365.937 127.94 366.567 127.22C367.207 126.49 368.107 126.125 369.267 126.125C370.307 126.125 371.112 126.4 371.682 126.95C372.252 127.49 372.567 128.2 372.627 129.08H370.917C370.877 128.64 370.712 128.29 370.422 128.03C370.132 127.77 369.747 127.64 369.267 127.64C368.627 127.64 368.147 127.86 367.827 128.3C367.517 128.74 367.362 129.35 367.362 130.13C367.362 130.92 367.517 131.535 367.827 131.975C368.147 132.415 368.627 132.635 369.267 132.635C369.747 132.635 370.132 132.51 370.422 132.26C370.712 132 370.882 131.645 370.932 131.195H372.642C372.572 132.085 372.252 132.8 371.682 133.34C371.122 133.87 370.332 134.135 369.312 134.135ZM377.471 134.135C376.331 134.135 375.436 133.76 374.786 133.01C374.136 132.26 373.811 131.3 373.811 130.13C373.811 128.96 374.121 128 374.741 127.25C375.371 126.5 376.271 126.125 377.441 126.125C378.541 126.125 379.396 126.48 380.006 127.19C380.626 127.89 380.936 128.79 380.936 129.89V130.61H375.581C375.581 131.25 375.741 131.76 376.061 132.14C376.391 132.51 376.861 132.695 377.471 132.695C378.401 132.695 378.966 132.345 379.166 131.645H380.831C380.721 132.365 380.356 132.96 379.736 133.43C379.126 133.9 378.371 134.135 377.471 134.135ZM375.596 129.395H379.181C379.171 128.855 379.016 128.42 378.716 128.09C378.426 127.75 378.001 127.58 377.441 127.58C376.851 127.58 376.401 127.75 376.091 128.09C375.781 128.42 375.616 128.855 375.596 129.395ZM387.201 134V123.5H388.956V132.41H393.906V134H387.201ZM398.017 134.135C396.487 134.135 395.722 133.385 395.722 131.885V127.715H394.447V126.26H395.797V124.625L397.282 124.205H397.432V126.26H399.307V127.715H397.432V131.585C397.432 131.955 397.512 132.225 397.672 132.395C397.832 132.555 398.087 132.635 398.437 132.635C398.707 132.635 398.957 132.6 399.187 132.53H399.337V133.97C398.987 134.08 398.547 134.135 398.017 134.135ZM403.828 134.135C402.838 134.135 402.053 133.77 401.473 133.04C400.903 132.31 400.613 131.335 400.603 130.115C400.613 128.925 400.898 127.965 401.458 127.235C402.028 126.495 402.818 126.125 403.828 126.125C404.838 126.125 405.578 126.48 406.048 127.19H406.108V122.9H407.818V134H406.303L406.108 133.07H406.048C405.578 133.78 404.838 134.135 403.828 134.135ZM404.248 132.62C404.888 132.62 405.368 132.385 405.688 131.915C406.008 131.445 406.168 130.845 406.168 130.115C406.168 129.385 406.008 128.79 405.688 128.33C405.378 127.87 404.898 127.64 404.248 127.64C403.588 127.64 403.103 127.87 402.793 128.33C402.493 128.79 402.343 129.385 402.343 130.115C402.343 130.855 402.493 131.46 402.793 131.93C403.103 132.39 403.588 132.62 404.248 132.62Z" fill="#676875"/>
<rect opacity="0.1" x="142" y="153" width="280" height="24" rx="10" fill="#5562EB"/>
<rect opacity="0.2" x="232" y="161" width="100" height="8" rx="4" fill="#5562EB"/>
<g filter="url(#filter1_dd)">
<rect x="162" y="153" width="320" height="128" rx="20" fill="white"/>
</g>
<rect opacity="0.2" x="182" y="173" width="121" height="20" rx="6" fill="#ECA336"/>
<path d="M194.048 187.099C192.889 187.099 191.995 186.736 191.364 186.01C190.741 185.277 190.429 184.327 190.429 183.161C190.429 181.98 190.741 181.027 191.364 180.301C191.995 179.568 192.889 179.201 194.048 179.201C194.994 179.201 195.764 179.458 196.358 179.971C196.952 180.484 197.289 181.133 197.37 181.918H195.83C195.771 181.529 195.592 181.21 195.291 180.961C194.998 180.704 194.583 180.576 194.048 180.576C193.359 180.576 192.838 180.807 192.486 181.269C192.141 181.731 191.969 182.362 191.969 183.161C191.969 183.96 192.141 184.591 192.486 185.053C192.838 185.508 193.359 185.735 194.048 185.735C194.605 185.735 195.038 185.592 195.346 185.306C195.661 185.02 195.848 184.657 195.907 184.217H194.268V182.875H197.447V183.678C197.447 184.712 197.135 185.541 196.512 186.164C195.889 186.787 195.067 187.099 194.048 187.099ZM201.944 187.099C200.763 187.099 199.861 186.732 199.238 185.999C198.615 185.258 198.303 184.309 198.303 183.15C198.303 181.991 198.615 181.045 199.238 180.312C199.861 179.571 200.763 179.201 201.944 179.201C203.117 179.201 204.016 179.571 204.639 180.312C205.27 181.045 205.585 181.991 205.585 183.15C205.585 184.309 205.27 185.258 204.639 185.999C204.016 186.732 203.117 187.099 201.944 187.099ZM200.371 185.042C200.723 185.497 201.247 185.724 201.944 185.724C202.641 185.724 203.165 185.497 203.517 185.042C203.869 184.58 204.045 183.949 204.045 183.15C204.045 182.351 203.869 181.724 203.517 181.269C203.165 180.807 202.641 180.576 201.944 180.576C201.247 180.576 200.723 180.807 200.371 181.269C200.019 181.724 199.843 182.351 199.843 183.15C199.843 183.949 200.019 184.58 200.371 185.042ZM206.886 187V179.3H208.393V185.647H211.946V187H206.886ZM212.976 187V179.3H215.605C216.742 179.3 217.662 179.656 218.366 180.367C219.07 181.071 219.422 181.999 219.422 183.15C219.422 184.25 219.074 185.167 218.377 185.9C217.688 186.633 216.764 187 215.605 187H212.976ZM214.395 185.658H215.506C216.269 185.658 216.856 185.442 217.266 185.009C217.677 184.576 217.882 183.957 217.882 183.15C217.882 182.351 217.677 181.735 217.266 181.302C216.856 180.869 216.269 180.653 215.506 180.653H214.395V185.658ZM223.869 187V179.3H225.376V185.647H228.929V187H223.869ZM233.096 187.099C231.916 187.099 231.014 186.732 230.39 185.999C229.767 185.258 229.455 184.309 229.455 183.15C229.455 181.991 229.767 181.045 230.39 180.312C231.014 179.571 231.916 179.201 233.096 179.201C234.27 179.201 235.168 179.571 235.791 180.312C236.422 181.045 236.737 181.991 236.737 183.15C236.737 184.309 236.422 185.258 235.791 185.999C235.168 186.732 234.27 187.099 233.096 187.099ZM231.523 185.042C231.875 185.497 232.4 185.724 233.096 185.724C233.793 185.724 234.317 185.497 234.669 185.042C235.021 184.58 235.197 183.949 235.197 183.15C235.197 182.351 235.021 181.724 234.669 181.269C234.317 180.807 233.793 180.576 233.096 180.576C232.4 180.576 231.875 180.807 231.523 181.269C231.171 181.724 230.995 182.351 230.995 183.15C230.995 183.949 231.171 184.58 231.523 185.042ZM241.814 179.3L244.52 186.89V187H242.859L242.331 185.383H239.317L238.789 187H237.205V186.89L239.9 179.3H241.814ZM239.757 184.052H241.891L240.846 180.84H240.802L239.757 184.052ZM245.557 187V179.3H247.306L250.452 184.646H250.496V179.3H251.992V187H250.232L247.086 181.687H247.042V187H245.557ZM260.081 187.099C258.9 187.099 257.998 186.732 257.375 185.999C256.751 185.258 256.44 184.309 256.44 183.15C256.44 181.991 256.751 181.045 257.375 180.312C257.998 179.571 258.9 179.201 260.081 179.201C261.254 179.201 262.152 179.571 262.776 180.312C263.406 181.045 263.722 181.991 263.722 183.15C263.722 184.309 263.406 185.258 262.776 185.999C262.152 186.732 261.254 187.099 260.081 187.099ZM258.508 185.042C258.86 185.497 259.384 185.724 260.081 185.724C260.777 185.724 261.302 185.497 261.654 185.042C262.006 184.58 262.182 183.949 262.182 183.15C262.182 182.351 262.006 181.724 261.654 181.269C261.302 180.807 260.777 180.576 260.081 180.576C259.384 180.576 258.86 180.807 258.508 181.269C258.156 181.724 257.98 182.351 257.98 183.15C257.98 183.949 258.156 184.58 258.508 185.042ZM265.022 187V179.3H270.324V180.653H266.529V182.556H269.972V183.909H266.529V187H265.022ZM271.704 187V179.3H277.006V180.653H273.211V182.556H276.654V183.909H273.211V187H271.704ZM278.386 187V179.3H283.721V180.653H279.893V182.358H283.38V183.7H279.893V185.658H283.721V187H278.386ZM289.499 184.008L291.413 186.89V187H289.675L287.904 184.184H286.606V187H285.099V179.3H288.476C289.261 179.3 289.884 179.531 290.346 179.993C290.816 180.455 291.05 181.027 291.05 181.709C291.05 182.266 290.911 182.747 290.632 183.15C290.354 183.546 289.976 183.832 289.499 184.008ZM286.606 180.653V182.842H288.399C288.766 182.842 289.041 182.739 289.224 182.534C289.408 182.321 289.499 182.05 289.499 181.72C289.499 181.412 289.404 181.159 289.213 180.961C289.03 180.756 288.759 180.653 288.399 180.653H286.606Z" fill="#ECA336"/>
<path d="M187.505 218.135C185.965 218.135 184.78 217.645 183.95 216.665C183.12 215.685 182.705 214.39 182.705 212.78C182.705 211.15 183.12 209.84 183.95 208.85C184.79 207.86 185.975 207.365 187.505 207.365C188.775 207.365 189.8 207.705 190.58 208.385C191.37 209.055 191.82 209.925 191.93 210.995H190.13C190.05 210.395 189.79 209.91 189.35 209.54C188.91 209.17 188.295 208.985 187.505 208.985C186.485 208.985 185.73 209.335 185.24 210.035C184.75 210.725 184.505 211.64 184.505 212.78C184.505 213.91 184.75 214.82 185.24 215.51C185.73 216.19 186.485 216.53 187.505 216.53C188.365 216.53 189.03 216.295 189.5 215.825C189.98 215.345 190.245 214.73 190.295 213.98H187.805V212.42H192.065V213.425C192.065 214.855 191.65 216 190.82 216.86C190 217.71 188.895 218.135 187.505 218.135ZM197.012 218.135C195.872 218.135 194.977 217.76 194.327 217.01C193.677 216.26 193.352 215.3 193.352 214.13C193.352 212.96 193.662 212 194.282 211.25C194.912 210.5 195.812 210.125 196.982 210.125C198.082 210.125 198.937 210.48 199.547 211.19C200.167 211.89 200.477 212.79 200.477 213.89V214.61H195.122C195.122 215.25 195.282 215.76 195.602 216.14C195.932 216.51 196.402 216.695 197.012 216.695C197.942 216.695 198.507 216.345 198.707 215.645H200.372C200.262 216.365 199.897 216.96 199.277 217.43C198.667 217.9 197.912 218.135 197.012 218.135ZM195.137 213.395H198.722C198.712 212.855 198.557 212.42 198.257 212.09C197.967 211.75 197.542 211.58 196.982 211.58C196.392 211.58 195.942 211.75 195.632 212.09C195.322 212.42 195.157 212.855 195.137 213.395ZM205.107 218.135C203.577 218.135 202.812 217.385 202.812 215.885V211.715H201.537V210.26H202.887V208.625L204.372 208.205H204.522V210.26H206.397V211.715H204.522V215.585C204.522 215.955 204.602 216.225 204.762 216.395C204.922 216.555 205.177 216.635 205.527 216.635C205.797 216.635 206.047 216.6 206.277 216.53H206.427V217.97C206.077 218.08 205.637 218.135 205.107 218.135ZM214.758 218.135C213.928 218.135 213.268 217.91 212.778 217.46C212.298 217 212.058 216.42 212.058 215.72C212.058 215 212.318 214.42 212.838 213.98C213.368 213.54 214.163 213.32 215.223 213.32C215.853 213.32 216.453 213.405 217.023 213.575V212.855C217.023 212.465 216.893 212.15 216.633 211.91C216.383 211.66 216.003 211.535 215.493 211.535C215.043 211.535 214.688 211.645 214.428 211.865C214.178 212.085 214.048 212.36 214.038 212.69H212.418C212.418 211.94 212.693 211.325 213.243 210.845C213.803 210.365 214.563 210.125 215.523 210.125C216.513 210.125 217.293 210.38 217.863 210.89C218.433 211.4 218.718 212.05 218.718 212.84V218H217.218L217.098 217.085H217.038C216.558 217.785 215.798 218.135 214.758 218.135ZM215.148 216.77C215.708 216.77 216.158 216.605 216.498 216.275C216.848 215.945 217.023 215.545 217.023 215.075V214.82C216.493 214.64 215.933 214.55 215.343 214.55C214.833 214.55 214.443 214.65 214.173 214.85C213.903 215.04 213.768 215.31 213.768 215.66C213.768 215.99 213.883 216.26 214.113 216.47C214.353 216.67 214.698 216.77 215.148 216.77ZM229.531 218.135C227.991 218.135 226.806 217.645 225.976 216.665C225.146 215.685 224.731 214.39 224.731 212.78C224.731 211.15 225.146 209.84 225.976 208.85C226.816 207.86 228.001 207.365 229.531 207.365C230.801 207.365 231.826 207.705 232.606 208.385C233.396 209.055 233.846 209.925 233.956 210.995H232.156C232.076 210.395 231.816 209.91 231.376 209.54C230.936 209.17 230.321 208.985 229.531 208.985C228.511 208.985 227.756 209.335 227.266 210.035C226.776 210.725 226.531 211.64 226.531 212.78C226.531 213.91 226.776 214.82 227.266 215.51C227.756 216.19 228.511 216.53 229.531 216.53C230.391 216.53 231.056 216.295 231.526 215.825C232.006 215.345 232.271 214.73 232.321 213.98H229.831V212.42H234.091V213.425C234.091 214.855 233.676 216 232.846 216.86C232.026 217.71 230.921 218.135 229.531 218.135ZM239.038 218.135C237.848 218.135 236.938 217.765 236.308 217.025C235.688 216.285 235.378 215.32 235.378 214.13C235.378 212.95 235.693 211.99 236.323 211.25C236.963 210.5 237.868 210.125 239.038 210.125C240.208 210.125 241.108 210.5 241.738 211.25C242.378 211.99 242.698 212.95 242.698 214.13C242.698 215.32 242.383 216.285 241.753 217.025C241.123 217.765 240.218 218.135 239.038 218.135ZM239.038 216.62C240.318 216.62 240.958 215.79 240.958 214.13C240.958 213.34 240.798 212.73 240.478 212.3C240.158 211.86 239.678 211.64 239.038 211.64C238.398 211.64 237.918 211.86 237.598 212.3C237.278 212.73 237.118 213.34 237.118 214.13C237.118 214.92 237.278 215.535 237.598 215.975C237.928 216.405 238.408 216.62 239.038 216.62ZM244.384 218V206.9H246.094V218H244.384ZM250.849 218.135C249.859 218.135 249.074 217.77 248.494 217.04C247.924 216.31 247.634 215.335 247.624 214.115C247.634 212.925 247.919 211.965 248.479 211.235C249.049 210.495 249.839 210.125 250.849 210.125C251.859 210.125 252.599 210.48 253.069 211.19H253.129V206.9H254.839V218H253.324L253.129 217.07H253.069C252.599 217.78 251.859 218.135 250.849 218.135ZM251.269 216.62C251.909 216.62 252.389 216.385 252.709 215.915C253.029 215.445 253.189 214.845 253.189 214.115C253.189 213.385 253.029 212.79 252.709 212.33C252.399 211.87 251.919 211.64 251.269 211.64C250.609 211.64 250.124 211.87 249.814 212.33C249.514 212.79 249.364 213.385 249.364 214.115C249.364 214.855 249.514 215.46 249.814 215.93C250.124 216.39 250.609 216.62 251.269 216.62ZM261.454 218V207.5H263.209V216.41H268.159V218H261.454ZM272.671 218.135C271.481 218.135 270.571 217.765 269.941 217.025C269.321 216.285 269.011 215.32 269.011 214.13C269.011 212.95 269.326 211.99 269.956 211.25C270.596 210.5 271.501 210.125 272.671 210.125C273.841 210.125 274.741 210.5 275.371 211.25C276.011 211.99 276.331 212.95 276.331 214.13C276.331 215.32 276.016 216.285 275.386 217.025C274.756 217.765 273.851 218.135 272.671 218.135ZM272.671 216.62C273.951 216.62 274.591 215.79 274.591 214.13C274.591 213.34 274.431 212.73 274.111 212.3C273.791 211.86 273.311 211.64 272.671 211.64C272.031 211.64 271.551 211.86 271.231 212.3C270.911 212.73 270.751 213.34 270.751 214.13C270.751 214.92 270.911 215.535 271.231 215.975C271.561 216.405 272.041 216.62 272.671 216.62ZM280.207 218.135C279.377 218.135 278.717 217.91 278.227 217.46C277.747 217 277.507 216.42 277.507 215.72C277.507 215 277.767 214.42 278.287 213.98C278.817 213.54 279.612 213.32 280.672 213.32C281.302 213.32 281.902 213.405 282.472 213.575V212.855C282.472 212.465 282.342 212.15 282.082 211.91C281.832 211.66 281.452 211.535 280.942 211.535C280.492 211.535 280.137 211.645 279.877 211.865C279.627 212.085 279.497 212.36 279.487 212.69H277.867C277.867 211.94 278.142 211.325 278.692 210.845C279.252 210.365 280.012 210.125 280.972 210.125C281.962 210.125 282.742 210.38 283.312 210.89C283.882 211.4 284.167 212.05 284.167 212.84V218H282.667L282.547 217.085H282.487C282.007 217.785 281.247 218.135 280.207 218.135ZM280.597 216.77C281.157 216.77 281.607 216.605 281.947 216.275C282.297 215.945 282.472 215.545 282.472 215.075V214.82C281.942 214.64 281.382 214.55 280.792 214.55C280.282 214.55 279.892 214.65 279.622 214.85C279.352 215.04 279.217 215.31 279.217 215.66C279.217 215.99 279.332 216.26 279.562 216.47C279.802 216.67 280.147 216.77 280.597 216.77ZM286.205 218V210.26H287.72L287.855 211.265H287.915C288.395 210.505 289.15 210.125 290.18 210.125C291.04 210.125 291.72 210.375 292.22 210.875C292.72 211.375 292.97 212.065 292.97 212.945V218H291.26V213.365C291.26 212.235 290.735 211.67 289.685 211.67C289.145 211.67 288.715 211.855 288.395 212.225C288.075 212.585 287.915 213.085 287.915 213.725V218H286.205ZM300.574 218L298.519 210.41V210.26H300.229L301.609 215.96H301.669L303.154 210.26H305.209L306.694 215.96H306.754L308.134 210.26H309.829V210.41L307.774 218H305.719L304.234 212.3H304.174L302.629 218H300.574ZM312.831 208.79C312.641 208.98 312.371 209.075 312.021 209.075C311.671 209.075 311.401 208.98 311.211 208.79C311.021 208.6 310.926 208.335 310.926 207.995C310.926 207.665 311.016 207.405 311.196 207.215C311.386 207.025 311.661 206.93 312.021 206.93C312.371 206.93 312.641 207.025 312.831 207.215C313.021 207.405 313.116 207.665 313.116 207.995C313.116 208.325 313.021 208.59 312.831 208.79ZM311.166 218V210.26H312.876V218H311.166ZM317.856 218.135C316.326 218.135 315.561 217.385 315.561 215.885V211.715H314.286V210.26H315.636V208.625L317.121 208.205H317.271V210.26H319.146V211.715H317.271V215.585C317.271 215.955 317.351 216.225 317.511 216.395C317.671 216.555 317.926 216.635 318.276 216.635C318.546 216.635 318.796 216.6 319.026 216.53H319.176V217.97C318.826 218.08 318.386 218.135 317.856 218.135ZM320.951 218V206.9H322.661V211.265H322.721C323.201 210.505 323.951 210.125 324.971 210.125C325.841 210.125 326.526 210.38 327.026 210.89C327.526 211.39 327.776 212.075 327.776 212.945V218H326.066V213.365C326.066 212.235 325.536 211.67 324.476 211.67C323.936 211.67 323.496 211.855 323.156 212.225C322.826 212.595 322.661 213.1 322.661 213.74V218H320.951ZM332.964 218.135C331.774 218.135 330.864 217.765 330.234 217.025C329.614 216.285 329.304 215.32 329.304 214.13C329.304 212.95 329.619 211.99 330.249 211.25C330.889 210.5 331.794 210.125 332.964 210.125C334.134 210.125 335.034 210.5 335.664 211.25C336.304 211.99 336.624 212.95 336.624 214.13C336.624 215.32 336.309 216.285 335.679 217.025C335.049 217.765 334.144 218.135 332.964 218.135ZM332.964 216.62C334.244 216.62 334.884 215.79 334.884 214.13C334.884 213.34 334.724 212.73 334.404 212.3C334.084 211.86 333.604 211.64 332.964 211.64C332.324 211.64 331.844 211.86 331.524 212.3C331.204 212.73 331.044 213.34 331.044 214.13C331.044 214.92 331.204 215.535 331.524 215.975C331.854 216.405 332.334 216.62 332.964 216.62ZM343.17 210.26H344.88V215.06C344.88 215.96 344.585 216.695 343.995 217.265C343.415 217.835 342.6 218.12 341.55 218.12C340.5 218.12 339.68 217.835 339.09 217.265C338.51 216.685 338.22 215.95 338.22 215.06V210.26H339.93V214.79C339.93 215.96 340.47 216.545 341.55 216.545C342.63 216.545 343.17 215.96 343.17 214.79V210.26ZM349.922 218.135C348.392 218.135 347.627 217.385 347.627 215.885V211.715H346.352V210.26H347.702V208.625L349.187 208.205H349.337V210.26H351.212V211.715H349.337V215.585C349.337 215.955 349.417 216.225 349.577 216.395C349.737 216.555 349.992 216.635 350.342 216.635C350.612 216.635 350.862 216.6 351.092 216.53H351.242V217.97C350.892 218.08 350.452 218.135 349.922 218.135ZM357.592 218V207.5H364.672V209.09H359.347V211.79H364.207V213.38H359.347V216.425H364.672V218H357.592ZM366.747 218V207.5H368.742L372.027 213.23H372.087L375.372 207.5H377.337V218H375.642V210.29H375.582L372.117 216.23H371.967L368.502 210.245H368.442V218H366.747ZM379.946 218V207.5H381.716V218H379.946ZM386.006 212.525L386.231 210.65L386.171 210.605L384.641 211.7L384.011 210.455L385.811 209.9V209.84L384.011 209.27L384.641 208.025L386.156 209.12L386.216 209.06L386.006 207.2H387.401L387.176 209.06L387.236 209.12L388.751 208.025L389.396 209.27L387.581 209.84V209.9L389.396 210.455L388.751 211.7L387.221 210.605L387.161 210.65L387.401 212.525H386.006Z" fill="#676875"/>
<rect opacity="0.1" x="182" y="237" width="280" height="24" rx="10" fill="#5562EB"/>
<rect opacity="0.2" x="272" y="245" width="100" height="8" rx="4" fill="#5562EB"/>
<defs>
<filter id="filter0_dd" x="94" y="48" width="376" height="184" filterUnits="userSpaceOnUse" color-interpolation-filters="sRGB">
<feFlood flood-opacity="0" result="BackgroundImageFix"/>
<feColorMatrix in="SourceAlpha" type="matrix" values="0 0 0 0 0 0 0 0 0 0 0 0 0 0 0 0 0 0 127 0"/>
<feMorphology radius="4" operator="erode" in="SourceAlpha" result="effect1_dropShadow"/>
<feOffset dy="7"/>
<feGaussianBlur stdDeviation="16"/>
<feColorMatrix type="matrix" values="0 0 0 0 0.0941176 0 0 0 0 0.152941 0 0 0 0 0.294118 0 0 0 0.12 0"/>
<feBlend mode="normal" in2="BackgroundImageFix" result="effect1_dropShadow"/>
<feColorMatrix in="SourceAlpha" type="matrix" values="0 0 0 0 0 0 0 0 0 0 0 0 0 0 0 0 0 0 127 0"/>
<feMorphology radius="6" operator="erode" in="SourceAlpha" result="effect2_dropShadow"/>
<feOffset dy="4"/>
<feGaussianBlur stdDeviation="5"/>
<feColorMatrix type="matrix" values="0 0 0 0 0.0941176 0 0 0 0 0.152941 0 0 0 0 0.294118 0 0 0 0.1 0"/>
<feBlend mode="normal" in2="effect1_dropShadow" result="effect2_dropShadow"/>
<feBlend mode="normal" in="SourceGraphic" in2="effect2_dropShadow" result="shape"/>
</filter>
<filter id="filter1_dd" x="134" y="132" width="376" height="184" filterUnits="userSpaceOnUse" color-interpolation-filters="sRGB">
<feFlood flood-opacity="0" result="BackgroundImageFix"/>
<feColorMatrix in="SourceAlpha" type="matrix" values="0 0 0 0 0 0 0 0 0 0 0 0 0 0 0 0 0 0 127 0"/>
<feMorphology radius="4" operator="erode" in="SourceAlpha" result="effect1_dropShadow"/>
<feOffset dy="7"/>
<feGaussianBlur stdDeviation="16"/>
<feColorMatrix type="matrix" values="0 0 0 0 0.0941176 0 0 0 0 0.152941 0 0 0 0 0.294118 0 0 0 0.12 0"/>
<feBlend mode="normal" in2="BackgroundImageFix" result="effect1_dropShadow"/>
<feColorMatrix in="SourceAlpha" type="matrix" values="0 0 0 0 0 0 0 0 0 0 0 0 0 0 0 0 0 0 127 0"/>
<feMorphology radius="6" operator="erode" in="SourceAlpha" result="effect2_dropShadow"/>
<feOffset dy="4"/>
<feGaussianBlur stdDeviation="5"/>
<feColorMatrix type="matrix" values="0 0 0 0 0.0941176 0 0 0 0 0.152941 0 0 0 0 0.294118 0 0 0 0.1 0"/>
<feBlend mode="normal" in2="effect1_dropShadow" result="effect2_dropShadow"/>
<feBlend mode="normal" in="SourceGraphic" in2="effect2_dropShadow" result="shape"/>
</filter>
<radialGradient id="paint0_radial" cx="0" cy="0" r="1" gradientUnits="userSpaceOnUse" gradientTransform="translate(441 141) rotate(90) scale(120)">
<stop stop-color="white"/>
<stop offset="0.265625" stop-color="white" stop-opacity="0.5"/>
<stop offset="1" stop-color="white" stop-opacity="0"/>
</radialGradient>
</defs>
</svg>
